{"glyphs":{"0":{"ha":667,"x_min":0,"x_max":625,"o":"m 0 0 l 0 819 l 42 819 l 42 0 l 0 0 m 83 0 l 83 819 l 125 819 l 125 0 l 83 0 m 250 0 l 250 819 l 375 819 l 375 0 l 250 0 m 417 0 l 417 819 l 542 819 l 542 0 l 417 0 m 583 0 l 583 819 l 625 819 l 625 0 l 583 0 m 333 -119 q 407 -162 381 -119 q 433 -283 433 -207 q 407 -406 433 -362 q 333 -449 382 -449 q 260 -406 285 -449 q 233 -283 233 -362 q 260 -162 233 -207 q 333 -119 286 -119 m 333 -151 q 288 -186 304 -151 q 271 -283 271 -222 q 275 -343 271 -318 l 385 -201 q 364 -164 378 -178 q 333 -151 351 -151 m 333 -417 q 379 -383 363 -417 q 396 -283 396 -349 q 392 -232 396 -254 l 283 -372 q 333 -417 299 -417 z "},"1":{"ha":667,"x_min":0,"x_max":625,"o":"m 0 0 l 0 819 l 125 819 l 125 0 l 0 0 m 167 0 l 167 819 l 208 819 l 208 0 l 167 0 m 333 0 l 333 819 l 375 819 l 375 0 l 333 0 m 417 0 l 417 819 l 458 819 l 458 0 l 417 0 m 500 0 l 500 819 l 625 819 l 625 0 l 500 0 m 324 -165 l 258 -185 l 250 -165 l 333 -121 l 360 -121 l 360 -443 l 324 -443 l 324 -165 z "},"2":{"ha":667,"x_min":0,"x_max":625,"o":"m 0 0 l 0 819 l 42 819 l 42 0 l 0 0 m 83 0 l 83 819 l 208 819 l 208 0 l 83 0 m 333 0 l 333 819 l 375 819 l 375 0 l 333 0 m 417 0 l 417 819 l 458 819 l 458 0 l 417 0 m 500 0 l 500 819 l 625 819 l 625 0 l 500 0 m 242 -414 l 283 -372 q 346 -306 325 -331 q 379 -258 367 -282 q 392 -210 392 -236 q 378 -165 392 -179 q 338 -151 363 -151 q 272 -183 299 -151 q 267 -197 267 -192 q 267 -203 267 -201 l 264 -206 l 261 -203 l 235 -182 q 276 -136 250 -151 q 338 -119 303 -119 q 404 -144 378 -119 q 429 -211 429 -169 q 415 -265 429 -239 q 382 -315 403 -292 q 324 -376 361 -339 l 289 -411 l 408 -411 q 421 -411 417 -411 q 428 -407 424 -410 l 431 -407 l 431 -443 l 242 -443 l 242 -414 z "},"3":{"ha":667,"x_min":0,"x_max":625,"o":"m 0 0 l 0 819 l 125 819 l 125 0 l 0 0 m 167 0 l 167 819 l 292 819 l 292 0 l 167 0 m 417 0 l 417 819 l 458 819 l 458 0 l 417 0 m 500 0 l 500 819 l 542 819 l 542 0 l 500 0 m 583 0 l 583 819 l 625 819 l 625 0 l 583 0 m 328 -449 q 279 -439 303 -449 q 240 -412 257 -431 l 264 -383 l 267 -379 l 269 -382 q 272 -392 271 -387 q 279 -400 274 -394 q 300 -412 289 -408 q 326 -418 311 -418 q 372 -400 357 -418 q 388 -353 388 -383 q 368 -306 388 -321 q 314 -289 349 -289 q 297 -290 308 -289 l 297 -261 q 360 -244 343 -261 q 376 -197 376 -228 q 364 -162 376 -176 q 331 -150 351 -150 q 272 -174 297 -150 l 250 -153 q 331 -119 282 -119 q 392 -142 369 -119 q 414 -200 414 -162 q 401 -246 414 -225 q 364 -272 388 -265 q 408 -303 392 -282 q 425 -354 425 -324 q 414 -401 425 -381 q 381 -436 401 -424 q 328 -449 358 -449 z "},"4":{"ha":667,"x_min":0,"x_max":625,"o":"m 0 0 l 0 819 l 42 819 l 42 0 l 0 0 m 83 0 l 83 819 l 125 819 l 125 0 l 83 0 m 250 0 l 250 819 l 375 819 l 375 0 l 250 0 m 417 0 l 417 819 l 458 819 l 458 0 l 417 0 m 500 0 l 500 819 l 625 819 l 625 0 l 500 0 m 368 -364 l 229 -364 l 229 -337 l 376 -121 l 407 -121 l 407 -335 l 447 -335 l 447 -364 l 407 -364 l 407 -443 l 368 -443 l 368 -364 m 368 -333 l 368 -186 l 271 -333 l 368 -333 z "},"5":{"ha":667,"x_min":0,"x_max":625,"o":"m 0 0 l 0 819 l 125 819 l 125 0 l 0 0 m 167 0 l 167 819 l 208 819 l 208 0 l 167 0 m 333 0 l 333 819 l 458 819 l 458 0 l 333 0 m 500 0 l 500 819 l 542 819 l 542 0 l 500 0 m 583 0 l 583 819 l 625 819 l 625 0 l 583 0 m 333 -449 q 278 -436 303 -449 q 238 -399 253 -424 l 271 -375 l 272 -376 q 274 -386 272 -382 q 281 -394 275 -389 q 304 -412 290 -407 q 335 -417 317 -417 q 365 -408 351 -417 q 389 -381 381 -399 q 397 -340 397 -364 q 378 -285 397 -306 q 331 -264 360 -264 q 299 -272 315 -264 q 271 -294 283 -281 l 249 -285 l 258 -121 l 422 -121 l 422 -154 l 289 -154 l 285 -246 q 338 -233 310 -233 q 386 -247 365 -233 q 421 -285 408 -260 q 433 -342 433 -310 q 421 -399 433 -375 q 385 -436 407 -424 q 333 -449 361 -449 z "},"6":{"ha":667,"x_min":0,"x_max":625,"o":"m 0 0 l 0 819 l 42 819 l 42 0 l 0 0 m 83 0 l 83 819 l 208 819 l 208 0 l 83 0 m 333 0 l 333 819 l 458 819 l 458 0 l 333 0 m 500 0 l 500 819 l 542 819 l 542 0 l 500 0 m 583 0 l 583 819 l 625 819 l 625 0 l 583 0 m 339 -449 q 265 -408 292 -449 q 239 -296 239 -367 q 253 -200 239 -240 q 292 -139 267 -160 q 353 -118 318 -118 q 424 -147 393 -118 l 397 -178 l 394 -175 q 392 -165 393 -169 q 383 -157 390 -162 q 353 -150 372 -150 q 319 -160 336 -150 q 288 -199 301 -171 q 275 -274 275 -226 q 304 -246 285 -256 q 343 -236 322 -236 q 388 -249 367 -236 q 419 -286 407 -262 q 431 -340 431 -310 q 418 -397 431 -372 q 385 -435 407 -421 q 339 -449 364 -449 m 340 -417 q 379 -396 364 -417 q 396 -342 396 -376 q 388 -300 396 -317 q 367 -275 379 -283 q 339 -267 353 -267 q 304 -279 321 -267 q 276 -310 288 -292 q 275 -324 275 -318 q 283 -368 275 -346 q 307 -403 292 -389 q 340 -417 321 -417 z "},"7":{"ha":667,"x_min":0,"x_max":625,"o":"m 0 0 l 0 819 l 42 819 l 42 0 l 0 0 m 83 0 l 83 819 l 125 819 l 125 0 l 83 0 m 250 0 l 250 819 l 292 819 l 292 0 l 250 0 m 333 0 l 333 819 l 458 819 l 458 0 l 333 0 m 500 0 l 500 819 l 625 819 l 625 0 l 500 0 m 285 -443 q 382 -156 329 -296 l 244 -156 l 244 -121 l 428 -121 l 428 -142 q 325 -443 364 -301 l 285 -443 z "},"8":{"ha":667,"x_min":0,"x_max":625,"o":"m 0 0 l 0 819 l 125 819 l 125 0 l 0 0 m 167 0 l 167 819 l 208 819 l 208 0 l 167 0 m 333 0 l 333 819 l 375 819 l 375 0 l 333 0 m 417 0 l 417 819 l 542 819 l 542 0 l 417 0 m 583 0 l 583 819 l 625 819 l 625 0 l 583 0 m 333 -449 q 282 -437 304 -449 q 247 -406 258 -425 q 235 -362 235 -386 q 253 -310 235 -335 q 300 -272 271 -286 q 264 -240 278 -261 q 250 -197 250 -219 q 272 -140 250 -162 q 336 -117 294 -117 q 400 -139 378 -117 q 421 -193 421 -160 q 407 -237 421 -217 q 369 -271 393 -258 q 415 -308 397 -283 q 432 -360 432 -332 q 419 -404 432 -385 q 385 -436 407 -425 q 333 -449 363 -449 m 342 -258 q 374 -231 361 -247 q 386 -194 386 -212 q 372 -161 386 -175 q 335 -147 360 -147 q 297 -161 311 -147 q 285 -193 285 -174 q 299 -229 285 -215 q 342 -258 313 -243 m 335 -415 q 379 -400 364 -415 q 396 -360 396 -385 q 376 -317 396 -336 q 326 -286 358 -296 q 288 -317 303 -296 q 272 -358 272 -336 q 289 -399 272 -383 q 335 -415 306 -415 z "},"9":{"ha":667,"x_min":0,"x_max":625,"o":"m 0 0 l 0 819 l 42 819 l 42 0 l 0 0 m 83 0 l 83 819 l 208 819 l 208 0 l 83 0 m 333 0 l 333 819 l 375 819 l 375 0 l 333 0 m 417 0 l 417 819 l 542 819 l 542 0 l 417 0 m 583 0 l 583 819 l 625 819 l 625 0 l 583 0 m 332 -119 q 385 -136 361 -119 q 418 -185 407 -154 q 431 -256 431 -215 q 403 -399 431 -350 q 322 -449 374 -447 q 244 -419 275 -449 l 271 -389 l 274 -392 q 276 -401 274 -397 q 285 -408 278 -404 q 319 -417 299 -417 q 374 -383 354 -417 q 396 -299 392 -349 q 368 -315 383 -310 q 333 -321 353 -321 q 285 -308 307 -321 q 251 -275 264 -296 q 239 -224 239 -253 q 251 -171 239 -194 q 285 -133 264 -147 q 332 -119 307 -119 m 333 -290 q 369 -283 356 -290 q 396 -262 385 -278 q 379 -178 394 -206 q 333 -151 364 -151 q 290 -171 307 -151 q 275 -224 275 -190 q 292 -272 275 -254 q 333 -290 308 -290 z "},"\r":{"ha":0,"x_min":0,"x_max":0,"o":""},"\u0000":{"ha":0,"x_min":0,"x_max":0,"o":""},"\u0001":{"ha":1333,"x_min":0,"x_max":1292,"o":"m 0 0 l 0 819 l 42 819 l 42 0 l 0 0 m 167 0 l 167 819 l 208 819 l 208 0 l 167 0 m 333 0 l 333 819 l 375 819 l 375 0 l 333 0 m 500 0 l 500 819 l 542 819 l 542 0 l 500 0 m 583 0 l 583 819 l 625 819 l 625 0 l 583 0 m 667 0 l 667 819 l 792 819 l 792 0 l 667 0 m 833 0 l 833 819 l 875 819 l 875 0 l 833 0 m 917 0 l 917 819 l 958 819 l 958 0 l 917 0 m 1083 0 l 1083 819 l 1125 819 l 1125 0 l 1083 0 m 1167 0 l 1167 819 l 1292 819 l 1292 0 l 1167 0 z "},"\u0002":{"ha":1333,"x_min":0,"x_max":1292,"o":"m 0 0 l 0 819 l 42 819 l 42 0 l 0 0 m 167 0 l 167 819 l 208 819 l 208 0 l 167 0 m 333 0 l 333 819 l 375 819 l 375 0 l 333 0 m 500 0 l 500 819 l 542 819 l 542 0 l 500 0 m 583 0 l 583 819 l 625 819 l 625 0 l 583 0 m 667 0 l 667 819 l 708 819 l 708 0 l 667 0 m 750 0 l 750 819 l 875 819 l 875 0 l 750 0 m 917 0 l 917 819 l 958 819 l 958 0 l 917 0 m 1083 0 l 1083 819 l 1125 819 l 1125 0 l 1083 0 m 1167 0 l 1167 819 l 1292 819 l 1292 0 l 1167 0 z "},"\u0003":{"ha":1333,"x_min":0,"x_max":1292,"o":"m 0 0 l 0 819 l 42 819 l 42 0 l 0 0 m 167 0 l 167 819 l 208 819 l 208 0 l 167 0 m 333 0 l 333 819 l 375 819 l 375 0 l 333 0 m 500 0 l 500 819 l 542 819 l 542 0 l 500 0 m 583 0 l 583 819 l 625 819 l 625 0 l 583 0 m 667 0 l 667 819 l 792 819 l 792 0 l 667 0 m 833 0 l 833 819 l 958 819 l 958 0 l 833 0 m 1000 0 l 1000 819 l 1042 819 l 1042 0 l 1000 0 m 1167 0 l 1167 819 l 1208 819 l 1208 0 l 1167 0 m 1250 0 l 1250 819 l 1292 819 l 1292 0 l 1250 0 z "},"\u0004":{"ha":1333,"x_min":0,"x_max":1292,"o":"m 0 0 l 0 819 l 42 819 l 42 0 l 0 0 m 167 0 l 167 819 l 208 819 l 208 0 l 167 0 m 333 0 l 333 819 l 375 819 l 375 0 l 333 0 m 500 0 l 500 819 l 542 819 l 542 0 l 500 0 m 583 0 l 583 819 l 625 819 l 625 0 l 583 0 m 667 0 l 667 819 l 708 819 l 708 0 l 667 0 m 750 0 l 750 819 l 792 819 l 792 0 l 750 0 m 833 0 l 833 819 l 958 819 l 958 0 l 833 0 m 1083 0 l 1083 819 l 1125 819 l 1125 0 l 1083 0 m 1167 0 l 1167 819 l 1292 819 l 1292 0 l 1167 0 z "},"\u0005":{"ha":1333,"x_min":0,"x_max":1292,"o":"m 0 0 l 0 819 l 42 819 l 42 0 l 0 0 m 167 0 l 167 819 l 208 819 l 208 0 l 167 0 m 333 0 l 333 819 l 375 819 l 375 0 l 333 0 m 500 0 l 500 819 l 542 819 l 542 0 l 500 0 m 583 0 l 583 819 l 625 819 l 625 0 l 583 0 m 667 0 l 667 819 l 792 819 l 792 0 l 667 0 m 833 0 l 833 819 l 875 819 l 875 0 l 833 0 m 917 0 l 917 819 l 1042 819 l 1042 0 l 917 0 m 1167 0 l 1167 819 l 1208 819 l 1208 0 l 1167 0 m 1250 0 l 1250 819 l 1292 819 l 1292 0 l 1250 0 z "},"\u0006":{"ha":1333,"x_min":0,"x_max":1292,"o":"m 0 0 l 0 819 l 42 819 l 42 0 l 0 0 m 167 0 l 167 819 l 208 819 l 208 0 l 167 0 m 333 0 l 333 819 l 375 819 l 375 0 l 333 0 m 500 0 l 500 819 l 542 819 l 542 0 l 500 0 m 583 0 l 583 819 l 625 819 l 625 0 l 583 0 m 667 0 l 667 819 l 708 819 l 708 0 l 667 0 m 750 0 l 750 819 l 875 819 l 875 0 l 750 0 m 917 0 l 917 819 l 1042 819 l 1042 0 l 917 0 m 1167 0 l 1167 819 l 1208 819 l 1208 0 l 1167 0 m 1250 0 l 1250 819 l 1292 819 l 1292 0 l 1250 0 z "},"\u0007":{"ha":1333,"x_min":0,"x_max":1292,"o":"m 0 0 l 0 819 l 42 819 l 42 0 l 0 0 m 167 0 l 167 819 l 208 819 l 208 0 l 167 0 m 333 0 l 333 819 l 375 819 l 375 0 l 333 0 m 500 0 l 500 819 l 542 819 l 542 0 l 500 0 m 583 0 l 583 819 l 625 819 l 625 0 l 583 0 m 667 0 l 667 819 l 708 819 l 708 0 l 667 0 m 750 0 l 750 819 l 792 819 l 792 0 l 750 0 m 833 0 l 833 819 l 875 819 l 875 0 l 833 0 m 1000 0 l 1000 819 l 1125 819 l 1125 0 l 1000 0 m 1167 0 l 1167 819 l 1292 819 l 1292 0 l 1167 0 z "},"\b":{"ha":1333,"x_min":0,"x_max":1292,"o":"m 0 0 l 0 819 l 42 819 l 42 0 l 0 0 m 167 0 l 167 819 l 208 819 l 208 0 l 167 0 m 333 0 l 333 819 l 375 819 l 375 0 l 333 0 m 500 0 l 500 819 l 542 819 l 542 0 l 500 0 m 583 0 l 583 819 l 625 819 l 625 0 l 583 0 m 667 0 l 667 819 l 792 819 l 792 0 l 667 0 m 833 0 l 833 819 l 875 819 l 875 0 l 833 0 m 917 0 l 917 819 l 958 819 l 958 0 l 917 0 m 1083 0 l 1083 819 l 1208 819 l 1208 0 l 1083 0 m 1250 0 l 1250 819 l 1292 819 l 1292 0 l 1250 0 z "},"\t":{"ha":1333,"x_min":0,"x_max":1292,"o":"m 0 0 l 0 819 l 42 819 l 42 0 l 0 0 m 167 0 l 167 819 l 208 819 l 208 0 l 167 0 m 333 0 l 333 819 l 375 819 l 375 0 l 333 0 m 500 0 l 500 819 l 542 819 l 542 0 l 500 0 m 583 0 l 583 819 l 625 819 l 625 0 l 583 0 m 667 0 l 667 819 l 708 819 l 708 0 l 667 0 m 750 0 l 750 819 l 875 819 l 875 0 l 750 0 m 917 0 l 917 819 l 958 819 l 958 0 l 917 0 m 1083 0 l 1083 819 l 1208 819 l 1208 0 l 1083 0 m 1250 0 l 1250 819 l 1292 819 l 1292 0 l 1250 0 z "},"\n":{"ha":1333,"x_min":0,"x_max":1292,"o":"m 0 0 l 0 819 l 42 819 l 42 0 l 0 0 m 167 0 l 167 819 l 208 819 l 208 0 l 167 0 m 333 0 l 333 819 l 375 819 l 375 0 l 333 0 m 500 0 l 500 819 l 542 819 l 542 0 l 500 0 m 583 0 l 583 819 l 625 819 l 625 0 l 583 0 m 667 0 l 667 819 l 708 819 l 708 0 l 667 0 m 750 0 l 750 819 l 792 819 l 792 0 l 750 0 m 833 0 l 833 819 l 958 819 l 958 0 l 833 0 m 1083 0 l 1083 819 l 1208 819 l 1208 0 l 1083 0 m 1250 0 l 1250 819 l 1292 819 l 1292 0 l 1250 0 z "},"\u000b":{"ha":1333,"x_min":0,"x_max":1292,"o":"m 0 0 l 0 819 l 42 819 l 42 0 l 0 0 m 167 0 l 167 819 l 208 819 l 208 0 l 167 0 m 333 0 l 333 819 l 375 819 l 375 0 l 333 0 m 500 0 l 500 819 l 542 819 l 542 0 l 500 0 m 583 0 l 583 819 l 625 819 l 625 0 l 583 0 m 667 0 l 667 819 l 792 819 l 792 0 l 667 0 m 833 0 l 833 819 l 875 819 l 875 0 l 833 0 m 917 0 l 917 819 l 958 819 l 958 0 l 917 0 m 1000 0 l 1000 819 l 1042 819 l 1042 0 l 1000 0 m 1167 0 l 1167 819 l 1292 819 l 1292 0 l 1167 0 z "},"\f":{"ha":1333,"x_min":0,"x_max":1292,"o":"m 0 0 l 0 819 l 42 819 l 42 0 l 0 0 m 167 0 l 167 819 l 208 819 l 208 0 l 167 0 m 333 0 l 333 819 l 375 819 l 375 0 l 333 0 m 500 0 l 500 819 l 542 819 l 542 0 l 500 0 m 583 0 l 583 819 l 625 819 l 625 0 l 583 0 m 667 0 l 667 819 l 708 819 l 708 0 l 667 0 m 750 0 l 750 819 l 875 819 l 875 0 l 750 0 m 917 0 l 917 819 l 958 819 l 958 0 l 917 0 m 1000 0 l 1000 819 l 1042 819 l 1042 0 l 1000 0 m 1167 0 l 1167 819 l 1292 819 l 1292 0 l 1167 0 z "},"\u000e":{"ha":1333,"x_min":0,"x_max":1292,"o":"m 0 0 l 0 819 l 42 819 l 42 0 l 0 0 m 167 0 l 167 819 l 208 819 l 208 0 l 167 0 m 333 0 l 333 819 l 375 819 l 375 0 l 333 0 m 500 0 l 500 819 l 542 819 l 542 0 l 500 0 m 583 0 l 583 819 l 625 819 l 625 0 l 583 0 m 667 0 l 667 819 l 708 819 l 708 0 l 667 0 m 750 0 l 750 819 l 792 819 l 792 0 l 750 0 m 833 0 l 833 819 l 958 819 l 958 0 l 833 0 m 1000 0 l 1000 819 l 1042 819 l 1042 0 l 1000 0 m 1167 0 l 1167 819 l 1292 819 l 1292 0 l 1167 0 z "},"\u000f":{"ha":1333,"x_min":0,"x_max":1292,"o":"m 0 0 l 0 819 l 42 819 l 42 0 l 0 0 m 167 0 l 167 819 l 208 819 l 208 0 l 167 0 m 333 0 l 333 819 l 375 819 l 375 0 l 333 0 m 500 0 l 500 819 l 542 819 l 542 0 l 500 0 m 583 0 l 583 819 l 625 819 l 625 0 l 583 0 m 667 0 l 667 819 l 792 819 l 792 0 l 667 0 m 833 0 l 833 819 l 875 819 l 875 0 l 833 0 m 917 0 l 917 819 l 1042 819 l 1042 0 l 917 0 m 1083 0 l 1083 819 l 1125 819 l 1125 0 l 1083 0 m 1250 0 l 1250 819 l 1292 819 l 1292 0 l 1250 0 z "},"\u0010":{"ha":1333,"x_min":0,"x_max":1292,"o":"m 0 0 l 0 819 l 42 819 l 42 0 l 0 0 m 167 0 l 167 819 l 208 819 l 208 0 l 167 0 m 333 0 l 333 819 l 375 819 l 375 0 l 333 0 m 500 0 l 500 819 l 542 819 l 542 0 l 500 0 m 583 0 l 583 819 l 625 819 l 625 0 l 583 0 m 667 0 l 667 819 l 708 819 l 708 0 l 667 0 m 750 0 l 750 819 l 875 819 l 875 0 l 750 0 m 917 0 l 917 819 l 1042 819 l 1042 0 l 917 0 m 1083 0 l 1083 819 l 1125 819 l 1125 0 l 1083 0 m 1250 0 l 1250 819 l 1292 819 l 1292 0 l 1250 0 z "},"\u0011":{"ha":1333,"x_min":0,"x_max":1292,"o":"m 0 0 l 0 819 l 42 819 l 42 0 l 0 0 m 167 0 l 167 819 l 208 819 l 208 0 l 167 0 m 333 0 l 333 819 l 375 819 l 375 0 l 333 0 m 500 0 l 500 819 l 542 819 l 542 0 l 500 0 m 583 0 l 583 819 l 625 819 l 625 0 l 583 0 m 667 0 l 667 819 l 708 819 l 708 0 l 667 0 m 750 0 l 750 819 l 792 819 l 792 0 l 750 0 m 833 0 l 833 819 l 875 819 l 875 0 l 833 0 m 917 0 l 917 819 l 1042 819 l 1042 0 l 917 0 m 1167 0 l 1167 819 l 1292 819 l 1292 0 l 1167 0 z "},"\u0012":{"ha":1333,"x_min":0,"x_max":1292,"o":"m 0 0 l 0 819 l 42 819 l 42 0 l 0 0 m 167 0 l 167 819 l 208 819 l 208 0 l 167 0 m 333 0 l 333 819 l 375 819 l 375 0 l 333 0 m 500 0 l 500 819 l 542 819 l 542 0 l 500 0 m 583 0 l 583 819 l 625 819 l 625 0 l 583 0 m 667 0 l 667 819 l 792 819 l 792 0 l 667 0 m 833 0 l 833 819 l 875 819 l 875 0 l 833 0 m 917 0 l 917 819 l 958 819 l 958 0 l 917 0 m 1000 0 l 1000 819 l 1125 819 l 1125 0 l 1000 0 m 1250 0 l 1250 819 l 1292 819 l 1292 0 l 1250 0 z "},"\u0013":{"ha":1333,"x_min":0,"x_max":1292,"o":"m 0 0 l 0 819 l 42 819 l 42 0 l 0 0 m 167 0 l 167 819 l 208 819 l 208 0 l 167 0 m 333 0 l 333 819 l 375 819 l 375 0 l 333 0 m 500 0 l 500 819 l 542 819 l 542 0 l 500 0 m 583 0 l 583 819 l 625 819 l 625 0 l 583 0 m 667 0 l 667 819 l 708 819 l 708 0 l 667 0 m 750 0 l 750 819 l 875 819 l 875 0 l 750 0 m 917 0 l 917 819 l 958 819 l 958 0 l 917 0 m 1000 0 l 1000 819 l 1125 819 l 1125 0 l 1000 0 m 1250 0 l 1250 819 l 1292 819 l 1292 0 l 1250 0 z "},"\u0014":{"ha":1333,"x_min":0,"x_max":1292,"o":"m 0 0 l 0 819 l 42 819 l 42 0 l 0 0 m 167 0 l 167 819 l 208 819 l 208 0 l 167 0 m 333 0 l 333 819 l 375 819 l 375 0 l 333 0 m 500 0 l 500 819 l 542 819 l 542 0 l 500 0 m 583 0 l 583 819 l 625 819 l 625 0 l 583 0 m 667 0 l 667 819 l 708 819 l 708 0 l 667 0 m 750 0 l 750 819 l 792 819 l 792 0 l 750 0 m 833 0 l 833 819 l 958 819 l 958 0 l 833 0 m 1000 0 l 1000 819 l 1125 819 l 1125 0 l 1000 0 m 1250 0 l 1250 819 l 1292 819 l 1292 0 l 1250 0 z "},"\u0015":{"ha":1333,"x_min":0,"x_max":1292,"o":"m 0 0 l 0 819 l 42 819 l 42 0 l 0 0 m 167 0 l 167 819 l 208 819 l 208 0 l 167 0 m 333 0 l 333 819 l 375 819 l 375 0 l 333 0 m 500 0 l 500 819 l 542 819 l 542 0 l 500 0 m 583 0 l 583 819 l 625 819 l 625 0 l 583 0 m 667 0 l 667 819 l 792 819 l 792 0 l 667 0 m 917 0 l 917 819 l 958 819 l 958 0 l 917 0 m 1000 0 l 1000 819 l 1042 819 l 1042 0 l 1000 0 m 1083 0 l 1083 819 l 1125 819 l 1125 0 l 1083 0 m 1167 0 l 1167 819 l 1292 819 l 1292 0 l 1167 0 z "},"\u0016":{"ha":1333,"x_min":0,"x_max":1292,"o":"m 0 0 l 0 819 l 42 819 l 42 0 l 0 0 m 167 0 l 167 819 l 208 819 l 208 0 l 167 0 m 333 0 l 333 819 l 375 819 l 375 0 l 333 0 m 500 0 l 500 819 l 542 819 l 542 0 l 500 0 m 583 0 l 583 819 l 625 819 l 625 0 l 583 0 m 667 0 l 667 819 l 708 819 l 708 0 l 667 0 m 833 0 l 833 819 l 958 819 l 958 0 l 833 0 m 1000 0 l 1000 819 l 1042 819 l 1042 0 l 1000 0 m 1083 0 l 1083 819 l 1125 819 l 1125 0 l 1083 0 m 1167 0 l 1167 819 l 1292 819 l 1292 0 l 1167 0 z "},"\u0017":{"ha":1333,"x_min":0,"x_max":1292,"o":"m 0 0 l 0 819 l 42 819 l 42 0 l 0 0 m 167 0 l 167 819 l 208 819 l 208 0 l 167 0 m 333 0 l 333 819 l 375 819 l 375 0 l 333 0 m 500 0 l 500 819 l 542 819 l 542 0 l 500 0 m 583 0 l 583 819 l 625 819 l 625 0 l 583 0 m 667 0 l 667 819 l 792 819 l 792 0 l 667 0 m 917 0 l 917 819 l 1042 819 l 1042 0 l 917 0 m 1083 0 l 1083 819 l 1125 819 l 1125 0 l 1083 0 m 1167 0 l 1167 819 l 1208 819 l 1208 0 l 1167 0 m 1250 0 l 1250 819 l 1292 819 l 1292 0 l 1250 0 z "},"\u0018":{"ha":1333,"x_min":0,"x_max":1292,"o":"m 0 0 l 0 819 l 42 819 l 42 0 l 0 0 m 167 0 l 167 819 l 208 819 l 208 0 l 167 0 m 333 0 l 333 819 l 375 819 l 375 0 l 333 0 m 500 0 l 500 819 l 542 819 l 542 0 l 500 0 m 583 0 l 583 819 l 625 819 l 625 0 l 583 0 m 667 0 l 667 819 l 708 819 l 708 0 l 667 0 m 833 0 l 833 819 l 875 819 l 875 0 l 833 0 m 917 0 l 917 819 l 1042 819 l 1042 0 l 917 0 m 1083 0 l 1083 819 l 1125 819 l 1125 0 l 1083 0 m 1167 0 l 1167 819 l 1292 819 l 1292 0 l 1167 0 z "},"\u0019":{"ha":1333,"x_min":0,"x_max":1292,"o":"m 0 0 l 0 819 l 42 819 l 42 0 l 0 0 m 167 0 l 167 819 l 208 819 l 208 0 l 167 0 m 333 0 l 333 819 l 375 819 l 375 0 l 333 0 m 500 0 l 500 819 l 542 819 l 542 0 l 500 0 m 583 0 l 583 819 l 625 819 l 625 0 l 583 0 m 667 0 l 667 819 l 792 819 l 792 0 l 667 0 m 917 0 l 917 819 l 958 819 l 958 0 l 917 0 m 1000 0 l 1000 819 l 1125 819 l 1125 0 l 1000 0 m 1167 0 l 1167 819 l 1208 819 l 1208 0 l 1167 0 m 1250 0 l 1250 819 l 1292 819 l 1292 0 l 1250 0 z "},"\u001a":{"ha":1333,"x_min":0,"x_max":1292,"o":"m 0 0 l 0 819 l 42 819 l 42 0 l 0 0 m 167 0 l 167 819 l 208 819 l 208 0 l 167 0 m 333 0 l 333 819 l 375 819 l 375 0 l 333 0 m 500 0 l 500 819 l 542 819 l 542 0 l 500 0 m 583 0 l 583 819 l 625 819 l 625 0 l 583 0 m 667 0 l 667 819 l 708 819 l 708 0 l 667 0 m 833 0 l 833 819 l 958 819 l 958 0 l 833 0 m 1000 0 l 1000 819 l 1125 819 l 1125 0 l 1000 0 m 1167 0 l 1167 819 l 1208 819 l 1208 0 l 1167 0 m 1250 0 l 1250 819 l 1292 819 l 1292 0 l 1250 0 z "},"\u001b":{"ha":1333,"x_min":0,"x_max":1292,"o":"m 0 0 l 0 819 l 42 819 l 42 0 l 0 0 m 83 0 l 83 819 l 125 819 l 125 0 l 83 0 m 250 0 l 250 819 l 292 819 l 292 0 l 250 0 m 417 0 l 417 819 l 458 819 l 458 0 l 417 0 m 583 0 l 583 819 l 625 819 l 625 0 l 583 0 m 667 0 l 667 819 l 792 819 l 792 0 l 667 0 m 833 0 l 833 819 l 875 819 l 875 0 l 833 0 m 917 0 l 917 819 l 958 819 l 958 0 l 917 0 m 1083 0 l 1083 819 l 1125 819 l 1125 0 l 1083 0 m 1167 0 l 1167 819 l 1292 819 l 1292 0 l 1167 0 z "},"\u001c":{"ha":1333,"x_min":0,"x_max":1292,"o":"m 0 0 l 0 819 l 42 819 l 42 0 l 0 0 m 83 0 l 83 819 l 125 819 l 125 0 l 83 0 m 250 0 l 250 819 l 292 819 l 292 0 l 250 0 m 417 0 l 417 819 l 458 819 l 458 0 l 417 0 m 583 0 l 583 819 l 625 819 l 625 0 l 583 0 m 667 0 l 667 819 l 708 819 l 708 0 l 667 0 m 750 0 l 750 819 l 875 819 l 875 0 l 750 0 m 917 0 l 917 819 l 958 819 l 958 0 l 917 0 m 1083 0 l 1083 819 l 1125 819 l 1125 0 l 1083 0 m 1167 0 l 1167 819 l 1292 819 l 1292 0 l 1167 0 z "},"\u001d":{"ha":1333,"x_min":0,"x_max":1292,"o":"m 0 0 l 0 819 l 42 819 l 42 0 l 0 0 m 83 0 l 83 819 l 125 819 l 125 0 l 83 0 m 250 0 l 250 819 l 292 819 l 292 0 l 250 0 m 417 0 l 417 819 l 458 819 l 458 0 l 417 0 m 583 0 l 583 819 l 625 819 l 625 0 l 583 0 m 667 0 l 667 819 l 792 819 l 792 0 l 667 0 m 833 0 l 833 819 l 958 819 l 958 0 l 833 0 m 1000 0 l 1000 819 l 1042 819 l 1042 0 l 1000 0 m 1167 0 l 1167 819 l 1208 819 l 1208 0 l 1167 0 m 1250 0 l 1250 819 l 1292 819 l 1292 0 l 1250 0 z "},"\u001e":{"ha":1333,"x_min":0,"x_max":1292,"o":"m 0 0 l 0 819 l 42 819 l 42 0 l 0 0 m 83 0 l 83 819 l 125 819 l 125 0 l 83 0 m 250 0 l 250 819 l 292 819 l 292 0 l 250 0 m 417 0 l 417 819 l 458 819 l 458 0 l 417 0 m 583 0 l 583 819 l 625 819 l 625 0 l 583 0 m 667 0 l 667 819 l 708 819 l 708 0 l 667 0 m 750 0 l 750 819 l 792 819 l 792 0 l 750 0 m 833 0 l 833 819 l 958 819 l 958 0 l 833 0 m 1083 0 l 1083 819 l 1125 819 l 1125 0 l 1083 0 m 1167 0 l 1167 819 l 1292 819 l 1292 0 l 1167 0 z "},"\u001f":{"ha":1333,"x_min":0,"x_max":1292,"o":"m 0 0 l 0 819 l 42 819 l 42 0 l 0 0 m 83 0 l 83 819 l 125 819 l 125 0 l 83 0 m 250 0 l 250 819 l 292 819 l 292 0 l 250 0 m 417 0 l 417 819 l 458 819 l 458 0 l 417 0 m 583 0 l 583 819 l 625 819 l 625 0 l 583 0 m 667 0 l 667 819 l 792 819 l 792 0 l 667 0 m 833 0 l 833 819 l 875 819 l 875 0 l 833 0 m 917 0 l 917 819 l 1042 819 l 1042 0 l 917 0 m 1167 0 l 1167 819 l 1208 819 l 1208 0 l 1167 0 m 1250 0 l 1250 819 l 1292 819 l 1292 0 l 1250 0 z "}," ":{"ha":667,"x_min":0,"x_max":0,"o":""},"!":{"ha":1333,"x_min":0,"x_max":1292,"o":"m 0 0 l 0 819 l 42 819 l 42 0 l 0 0 m 167 0 l 167 819 l 208 819 l 208 0 l 167 0 m 333 0 l 333 819 l 375 819 l 375 0 l 333 0 m 417 0 l 417 819 l 458 819 l 458 0 l 417 0 m 583 0 l 583 819 l 625 819 l 625 0 l 583 0 m 667 0 l 667 819 l 792 819 l 792 0 l 667 0 m 833 0 l 833 819 l 875 819 l 875 0 l 833 0 m 917 0 l 917 819 l 958 819 l 958 0 l 917 0 m 1083 0 l 1083 819 l 1125 819 l 1125 0 l 1083 0 m 1167 0 l 1167 819 l 1292 819 l 1292 0 l 1167 0 m 636 -136 q 643 -108 636 -118 q 663 -99 650 -99 q 689 -142 689 -99 l 675 -343 l 649 -343 l 636 -136 m 661 -449 q 639 -440 649 -449 q 631 -419 631 -431 q 639 -397 631 -407 q 661 -387 649 -387 q 682 -397 674 -387 q 692 -419 692 -407 q 682 -440 692 -431 q 661 -449 674 -449 z "},"\"":{"ha":1333,"x_min":0,"x_max":1292,"o":"m 0 0 l 0 819 l 42 819 l 42 0 l 0 0 m 167 0 l 167 819 l 208 819 l 208 0 l 167 0 m 333 0 l 333 819 l 375 819 l 375 0 l 333 0 m 417 0 l 417 819 l 458 819 l 458 0 l 417 0 m 583 0 l 583 819 l 625 819 l 625 0 l 583 0 m 667 0 l 667 819 l 708 819 l 708 0 l 667 0 m 750 0 l 750 819 l 875 819 l 875 0 l 750 0 m 917 0 l 917 819 l 958 819 l 958 0 l 917 0 m 1083 0 l 1083 819 l 1125 819 l 1125 0 l 1083 0 m 1167 0 l 1167 819 l 1292 819 l 1292 0 l 1167 0 m 649 -100 q 647 -164 649 -143 q 643 -208 646 -183 l 640 -233 l 615 -233 l 613 -208 q 608 -164 610 -185 q 607 -100 607 -143 l 649 -100 m 726 -100 q 725 -164 726 -143 q 721 -208 724 -183 l 718 -233 l 693 -233 l 690 -208 q 686 -164 688 -185 q 685 -100 685 -143 l 726 -100 z "},"#":{"ha":1333,"x_min":0,"x_max":1292,"o":"m 0 0 l 0 819 l 42 819 l 42 0 l 0 0 m 167 0 l 167 819 l 208 819 l 208 0 l 167 0 m 333 0 l 333 819 l 375 819 l 375 0 l 333 0 m 417 0 l 417 819 l 458 819 l 458 0 l 417 0 m 583 0 l 583 819 l 625 819 l 625 0 l 583 0 m 667 0 l 667 819 l 792 819 l 792 0 l 667 0 m 833 0 l 833 819 l 958 819 l 958 0 l 833 0 m 1000 0 l 1000 819 l 1042 819 l 1042 0 l 1000 0 m 1167 0 l 1167 819 l 1208 819 l 1208 0 l 1167 0 m 1250 0 l 1250 819 l 1292 819 l 1292 0 l 1250 0 m 689 -343 l 631 -343 l 619 -436 l 590 -436 l 600 -344 l 550 -344 l 553 -321 l 604 -321 l 614 -233 l 557 -233 l 560 -210 l 617 -210 l 626 -121 l 658 -119 l 647 -208 l 704 -208 l 715 -122 l 747 -121 l 736 -207 l 783 -207 l 781 -232 l 733 -232 l 722 -318 l 774 -318 l 771 -342 l 719 -342 l 708 -436 l 676 -437 l 689 -343 m 690 -321 l 701 -232 l 644 -232 l 635 -321 l 690 -321 z "},"$":{"ha":1333,"x_min":0,"x_max":1292,"o":"m 0 0 l 0 819 l 42 819 l 42 0 l 0 0 m 167 0 l 167 819 l 208 819 l 208 0 l 167 0 m 333 0 l 333 819 l 375 819 l 375 0 l 333 0 m 417 0 l 417 819 l 458 819 l 458 0 l 417 0 m 583 0 l 583 819 l 625 819 l 625 0 l 583 0 m 667 0 l 667 819 l 708 819 l 708 0 l 667 0 m 750 0 l 750 819 l 792 819 l 792 0 l 750 0 m 833 0 l 833 819 l 958 819 l 958 0 l 833 0 m 1083 0 l 1083 819 l 1125 819 l 1125 0 l 1083 0 m 1167 0 l 1167 819 l 1292 819 l 1292 0 l 1167 0 m 658 -436 q 568 -394 604 -432 l 590 -364 q 593 -369 592 -364 q 594 -375 593 -374 q 658 -406 619 -401 l 658 -292 q 597 -260 618 -278 q 578 -212 578 -240 q 601 -164 578 -185 q 658 -137 624 -143 l 658 -107 l 692 -107 q 693 -108 693 -107 q 690 -112 693 -110 q 689 -118 689 -115 l 689 -137 q 765 -178 738 -143 l 743 -206 q 740 -200 742 -204 q 738 -194 739 -196 q 689 -168 721 -174 l 689 -268 q 756 -300 735 -282 q 775 -350 775 -318 q 764 -387 775 -369 q 735 -419 754 -406 q 689 -435 715 -432 l 689 -467 l 658 -467 l 658 -436 m 658 -167 q 625 -182 636 -169 q 613 -208 613 -193 q 658 -257 613 -237 l 658 -167 m 689 -404 q 728 -385 713 -400 q 742 -351 742 -371 q 729 -322 742 -333 q 689 -303 717 -311 l 689 -404 z "},"%":{"ha":1333,"x_min":0,"x_max":1292,"o":"m 0 0 l 0 819 l 42 819 l 42 0 l 0 0 m 167 0 l 167 819 l 208 819 l 208 0 l 167 0 m 333 0 l 333 819 l 375 819 l 375 0 l 333 0 m 417 0 l 417 819 l 458 819 l 458 0 l 417 0 m 583 0 l 583 819 l 625 819 l 625 0 l 583 0 m 667 0 l 667 819 l 792 819 l 792 0 l 667 0 m 833 0 l 833 819 l 875 819 l 875 0 l 833 0 m 917 0 l 917 819 l 1042 819 l 1042 0 l 917 0 m 1167 0 l 1167 819 l 1208 819 l 1208 0 l 1167 0 m 1250 0 l 1250 819 l 1292 819 l 1292 0 l 1250 0 m 610 -250 q 581 -242 594 -250 q 560 -218 568 -233 q 551 -183 551 -201 q 560 -149 551 -164 q 581 -125 568 -133 q 610 -115 594 -115 q 639 -125 625 -115 q 660 -149 653 -133 q 668 -183 668 -165 q 651 -232 668 -212 q 610 -250 635 -250 m 739 -121 l 769 -121 l 589 -443 l 561 -443 l 739 -121 m 610 -224 q 628 -214 621 -224 q 635 -183 635 -203 q 628 -153 635 -162 q 608 -143 619 -143 q 590 -153 599 -143 q 583 -183 583 -162 q 592 -212 583 -203 q 610 -224 599 -224 m 729 -449 q 700 -439 714 -449 q 679 -415 686 -431 q 671 -382 671 -400 q 679 -347 671 -362 q 700 -324 686 -332 q 729 -314 714 -314 q 769 -335 753 -314 q 786 -382 786 -354 q 779 -415 786 -400 q 758 -439 771 -431 q 729 -449 744 -449 m 729 -422 q 749 -412 740 -422 q 756 -382 756 -401 q 749 -353 756 -364 q 729 -340 740 -340 q 710 -351 717 -340 q 701 -381 701 -361 q 710 -412 701 -401 q 729 -422 718 -422 z "},"&":{"ha":1333,"x_min":0,"x_max":1292,"o":"m 0 0 l 0 819 l 42 819 l 42 0 l 0 0 m 167 0 l 167 819 l 208 819 l 208 0 l 167 0 m 333 0 l 333 819 l 375 819 l 375 0 l 333 0 m 417 0 l 417 819 l 458 819 l 458 0 l 417 0 m 583 0 l 583 819 l 625 819 l 625 0 l 583 0 m 667 0 l 667 819 l 708 819 l 708 0 l 667 0 m 750 0 l 750 819 l 875 819 l 875 0 l 750 0 m 917 0 l 917 819 l 1042 819 l 1042 0 l 917 0 m 1167 0 l 1167 819 l 1208 819 l 1208 0 l 1167 0 m 1250 0 l 1250 819 l 1292 819 l 1292 0 l 1250 0 m 724 -404 q 685 -436 708 -425 q 636 -449 661 -449 q 596 -437 614 -449 q 567 -410 576 -426 q 556 -371 556 -392 q 574 -311 556 -339 q 621 -265 592 -283 q 585 -186 585 -222 q 594 -151 585 -167 q 619 -126 604 -136 q 656 -118 636 -118 q 692 -128 675 -118 q 717 -153 707 -137 q 725 -186 725 -168 q 710 -236 725 -211 q 669 -272 693 -262 l 726 -354 q 744 -328 739 -339 q 750 -301 749 -317 q 753 -296 750 -299 l 786 -319 q 747 -379 767 -353 l 783 -426 l 753 -449 l 724 -404 m 651 -250 q 681 -224 669 -242 q 690 -189 690 -207 q 681 -160 690 -172 q 656 -149 669 -149 q 631 -160 640 -149 q 619 -186 619 -169 q 651 -250 619 -211 m 640 -415 q 704 -379 674 -415 l 639 -290 q 607 -324 619 -303 q 596 -364 596 -344 q 608 -400 596 -386 q 640 -415 622 -415 z "},"'":{"ha":1333,"x_min":0,"x_max":1292,"o":"m 0 0 l 0 819 l 42 819 l 42 0 l 0 0 m 167 0 l 167 819 l 208 819 l 208 0 l 167 0 m 333 0 l 333 819 l 375 819 l 375 0 l 333 0 m 417 0 l 417 819 l 458 819 l 458 0 l 417 0 m 583 0 l 583 819 l 625 819 l 625 0 l 583 0 m 667 0 l 667 819 l 708 819 l 708 0 l 667 0 m 750 0 l 750 819 l 792 819 l 792 0 l 750 0 m 833 0 l 833 819 l 875 819 l 875 0 l 833 0 m 1000 0 l 1000 819 l 1125 819 l 1125 0 l 1000 0 m 1167 0 l 1167 819 l 1292 819 l 1292 0 l 1167 0 m 688 -100 q 686 -164 688 -143 q 682 -208 685 -183 l 679 -233 l 654 -233 l 651 -208 q 647 -164 649 -185 q 646 -100 646 -143 l 688 -100 z "},"(":{"ha":1333,"x_min":0,"x_max":1292,"o":"m 0 0 l 0 819 l 42 819 l 42 0 l 0 0 m 167 0 l 167 819 l 208 819 l 208 0 l 167 0 m 333 0 l 333 819 l 375 819 l 375 0 l 333 0 m 417 0 l 417 819 l 458 819 l 458 0 l 417 0 m 583 0 l 583 819 l 625 819 l 625 0 l 583 0 m 667 0 l 667 819 l 792 819 l 792 0 l 667 0 m 833 0 l 833 819 l 875 819 l 875 0 l 833 0 m 917 0 l 917 819 l 958 819 l 958 0 l 917 0 m 1083 0 l 1083 819 l 1208 819 l 1208 0 l 1083 0 m 1250 0 l 1250 819 l 1292 819 l 1292 0 l 1250 0 m 742 -533 q 667 -479 699 -514 q 618 -403 635 -444 q 600 -314 600 -360 q 618 -226 600 -268 q 665 -153 635 -185 q 739 -100 697 -119 l 749 -132 q 668 -208 697 -160 q 638 -315 638 -258 q 668 -424 638 -374 q 751 -501 699 -475 l 742 -533 z "},")":{"ha":1333,"x_min":0,"x_max":1292,"o":"m 0 0 l 0 819 l 42 819 l 42 0 l 0 0 m 167 0 l 167 819 l 208 819 l 208 0 l 167 0 m 333 0 l 333 819 l 375 819 l 375 0 l 333 0 m 417 0 l 417 819 l 458 819 l 458 0 l 417 0 m 583 0 l 583 819 l 625 819 l 625 0 l 583 0 m 667 0 l 667 819 l 708 819 l 708 0 l 667 0 m 750 0 l 750 819 l 875 819 l 875 0 l 750 0 m 917 0 l 917 819 l 958 819 l 958 0 l 917 0 m 1083 0 l 1083 819 l 1208 819 l 1208 0 l 1083 0 m 1250 0 l 1250 819 l 1292 819 l 1292 0 l 1250 0 m 596 -501 q 679 -424 649 -475 q 711 -315 711 -374 q 681 -208 711 -258 q 600 -132 650 -160 l 610 -100 q 682 -153 650 -119 q 731 -226 713 -185 q 747 -314 747 -268 q 729 -403 747 -360 q 681 -479 713 -444 q 606 -533 649 -514 l 596 -501 z "},"*":{"ha":667,"x_min":0,"x_max":625,"o":"m 0 0 l 0 819 l 42 819 l 42 0 l 0 0 m 167 0 l 167 819 l 208 819 l 208 0 l 167 0 m 250 0 l 250 819 l 375 819 l 375 0 l 250 0 m 417 0 l 417 819 l 542 819 l 542 0 l 417 0 m 583 0 l 583 819 l 625 819 l 625 0 l 583 0 z "},"+":{"ha":1333,"x_min":0,"x_max":1292,"o":"m 0 0 l 0 819 l 42 819 l 42 0 l 0 0 m 167 0 l 167 819 l 208 819 l 208 0 l 167 0 m 333 0 l 333 819 l 375 819 l 375 0 l 333 0 m 417 0 l 417 819 l 458 819 l 458 0 l 417 0 m 583 0 l 583 819 l 625 819 l 625 0 l 583 0 m 667 0 l 667 819 l 792 819 l 792 0 l 667 0 m 833 0 l 833 819 l 875 819 l 875 0 l 833 0 m 917 0 l 917 819 l 958 819 l 958 0 l 917 0 m 1000 0 l 1000 819 l 1042 819 l 1042 0 l 1000 0 m 1167 0 l 1167 819 l 1292 819 l 1292 0 l 1167 0 m 653 -293 l 561 -293 l 561 -261 l 653 -261 l 653 -174 l 685 -174 l 685 -261 l 774 -261 l 774 -293 l 685 -293 l 685 -389 l 653 -389 l 653 -293 z "},",":{"ha":1333,"x_min":0,"x_max":1292,"o":"m 0 0 l 0 819 l 42 819 l 42 0 l 0 0 m 167 0 l 167 819 l 208 819 l 208 0 l 167 0 m 333 0 l 333 819 l 375 819 l 375 0 l 333 0 m 417 0 l 417 819 l 458 819 l 458 0 l 417 0 m 583 0 l 583 819 l 625 819 l 625 0 l 583 0 m 667 0 l 667 819 l 708 819 l 708 0 l 667 0 m 750 0 l 750 819 l 875 819 l 875 0 l 750 0 m 917 0 l 917 819 l 958 819 l 958 0 l 917 0 m 1000 0 l 1000 819 l 1042 819 l 1042 0 l 1000 0 m 1167 0 l 1167 819 l 1292 819 l 1292 0 l 1167 0 m 622 -514 q 647 -485 638 -501 q 657 -460 657 -469 q 654 -453 657 -456 q 644 -443 651 -449 q 633 -432 638 -436 q 631 -421 631 -426 q 639 -399 631 -407 q 660 -390 647 -390 q 685 -401 675 -390 q 696 -433 696 -414 q 640 -529 696 -474 l 622 -514 z "},"-":{"ha":667,"x_min":0,"x_max":625,"o":"m 0 0 l 0 819 l 42 819 l 42 0 l 0 0 m 167 0 l 167 819 l 208 819 l 208 0 l 167 0 m 250 0 l 250 819 l 292 819 l 292 0 l 250 0 m 333 0 l 333 819 l 458 819 l 458 0 l 333 0 m 500 0 l 500 819 l 625 819 l 625 0 l 500 0 m 240 -264 l 426 -264 l 426 -299 l 240 -299 l 240 -264 z "},".":{"ha":667,"x_min":0,"x_max":625,"o":"m 0 0 l 0 819 l 125 819 l 125 0 l 0 0 m 250 0 l 250 819 l 292 819 l 292 0 l 250 0 m 333 0 l 333 819 l 375 819 l 375 0 l 333 0 m 417 0 l 417 819 l 542 819 l 542 0 l 417 0 m 583 0 l 583 819 l 625 819 l 625 0 l 583 0 m 326 -449 q 306 -440 315 -449 q 297 -419 297 -431 q 306 -399 297 -407 q 326 -390 315 -390 q 347 -399 339 -390 q 357 -419 357 -407 q 347 -440 357 -431 q 326 -449 339 -449 z "},"/":{"ha":1333,"x_min":0,"x_max":1292,"o":"m 0 0 l 0 819 l 42 819 l 42 0 l 0 0 m 167 0 l 167 819 l 208 819 l 208 0 l 167 0 m 333 0 l 333 819 l 375 819 l 375 0 l 333 0 m 417 0 l 417 819 l 458 819 l 458 0 l 417 0 m 583 0 l 583 819 l 625 819 l 625 0 l 583 0 m 667 0 l 667 819 l 792 819 l 792 0 l 667 0 m 833 0 l 833 819 l 875 819 l 875 0 l 833 0 m 917 0 l 917 819 l 1042 819 l 1042 0 l 917 0 m 1083 0 l 1083 819 l 1125 819 l 1125 0 l 1083 0 m 1250 0 l 1250 819 l 1292 819 l 1292 0 l 1250 0 m 571 -450 l 732 -100 l 763 -115 l 601 -465 l 571 -450 z "},":":{"ha":1333,"x_min":0,"x_max":1292,"o":"m 0 0 l 0 819 l 42 819 l 42 0 l 0 0 m 167 0 l 167 819 l 208 819 l 208 0 l 167 0 m 333 0 l 333 819 l 375 819 l 375 0 l 333 0 m 417 0 l 417 819 l 458 819 l 458 0 l 417 0 m 583 0 l 583 819 l 625 819 l 625 0 l 583 0 m 667 0 l 667 819 l 708 819 l 708 0 l 667 0 m 833 0 l 833 819 l 958 819 l 958 0 l 833 0 m 1000 0 l 1000 819 l 1125 819 l 1125 0 l 1000 0 m 1167 0 l 1167 819 l 1208 819 l 1208 0 l 1167 0 m 1250 0 l 1250 819 l 1292 819 l 1292 0 l 1250 0 m 660 -283 q 639 -275 649 -283 q 631 -254 631 -267 q 639 -233 631 -242 q 660 -225 649 -225 q 682 -233 672 -225 q 692 -254 692 -242 q 682 -275 692 -267 q 660 -283 672 -283 m 660 -449 q 639 -440 647 -449 q 631 -419 631 -432 q 639 -399 631 -407 q 660 -389 649 -389 q 682 -399 672 -389 q 692 -419 692 -407 q 682 -440 692 -431 q 660 -449 674 -449 z "},";":{"ha":1333,"x_min":0,"x_max":1292,"o":"m 0 0 l 0 819 l 42 819 l 42 0 l 0 0 m 83 0 l 83 819 l 125 819 l 125 0 l 83 0 m 250 0 l 250 819 l 292 819 l 292 0 l 250 0 m 417 0 l 417 819 l 458 819 l 458 0 l 417 0 m 583 0 l 583 819 l 625 819 l 625 0 l 583 0 m 667 0 l 667 819 l 708 819 l 708 0 l 667 0 m 750 0 l 750 819 l 875 819 l 875 0 l 750 0 m 917 0 l 917 819 l 1042 819 l 1042 0 l 917 0 m 1167 0 l 1167 819 l 1208 819 l 1208 0 l 1167 0 m 1250 0 l 1250 819 l 1292 819 l 1292 0 l 1250 0 m 660 -283 q 639 -275 649 -283 q 631 -254 631 -267 q 639 -233 631 -242 q 660 -225 649 -225 q 682 -233 672 -225 q 692 -254 692 -242 q 682 -275 692 -267 q 660 -283 672 -283 m 622 -514 q 647 -485 638 -501 q 657 -460 657 -469 q 654 -453 657 -456 q 644 -443 651 -449 q 633 -432 638 -436 q 631 -421 631 -426 q 639 -399 631 -407 q 660 -390 647 -390 q 685 -401 675 -390 q 696 -433 696 -414 q 640 -529 696 -474 l 622 -514 z "},"<":{"ha":1333,"x_min":0,"x_max":1292,"o":"m 0 0 l 0 819 l 42 819 l 42 0 l 0 0 m 83 0 l 83 819 l 125 819 l 125 0 l 83 0 m 250 0 l 250 819 l 292 819 l 292 0 l 250 0 m 417 0 l 417 819 l 458 819 l 458 0 l 417 0 m 583 0 l 583 819 l 625 819 l 625 0 l 583 0 m 667 0 l 667 819 l 708 819 l 708 0 l 667 0 m 750 0 l 750 819 l 792 819 l 792 0 l 750 0 m 833 0 l 833 819 l 875 819 l 875 0 l 833 0 m 1000 0 l 1000 819 l 1125 819 l 1125 0 l 1000 0 m 1167 0 l 1167 819 l 1292 819 l 1292 0 l 1167 0 m 556 -290 l 556 -265 l 774 -150 l 774 -187 l 594 -278 l 775 -379 l 775 -419 l 556 -290 z "},"=":{"ha":1333,"x_min":0,"x_max":1292,"o":"m 0 0 l 0 819 l 42 819 l 42 0 l 0 0 m 83 0 l 83 819 l 125 819 l 125 0 l 83 0 m 250 0 l 250 819 l 292 819 l 292 0 l 250 0 m 417 0 l 417 819 l 458 819 l 458 0 l 417 0 m 583 0 l 583 819 l 625 819 l 625 0 l 583 0 m 667 0 l 667 819 l 792 819 l 792 0 l 667 0 m 833 0 l 833 819 l 875 819 l 875 0 l 833 0 m 917 0 l 917 819 l 958 819 l 958 0 l 917 0 m 1083 0 l 1083 819 l 1208 819 l 1208 0 l 1083 0 m 1250 0 l 1250 819 l 1292 819 l 1292 0 l 1250 0 m 561 -217 l 774 -217 l 774 -249 l 561 -249 l 561 -217 m 561 -299 l 774 -299 l 774 -329 l 561 -329 l 561 -299 z "},">":{"ha":1333,"x_min":0,"x_max":1292,"o":"m 0 0 l 0 819 l 42 819 l 42 0 l 0 0 m 83 0 l 83 819 l 125 819 l 125 0 l 83 0 m 250 0 l 250 819 l 292 819 l 292 0 l 250 0 m 417 0 l 417 819 l 458 819 l 458 0 l 417 0 m 583 0 l 583 819 l 625 819 l 625 0 l 583 0 m 667 0 l 667 819 l 708 819 l 708 0 l 667 0 m 750 0 l 750 819 l 875 819 l 875 0 l 750 0 m 917 0 l 917 819 l 958 819 l 958 0 l 917 0 m 1083 0 l 1083 819 l 1208 819 l 1208 0 l 1083 0 m 1250 0 l 1250 819 l 1292 819 l 1292 0 l 1250 0 m 558 -379 l 739 -278 l 560 -187 l 560 -150 l 778 -265 l 778 -290 l 558 -419 l 558 -379 z "},"?":{"ha":1333,"x_min":0,"x_max":1292,"o":"m 0 0 l 0 819 l 42 819 l 42 0 l 0 0 m 83 0 l 83 819 l 125 819 l 125 0 l 83 0 m 250 0 l 250 819 l 292 819 l 292 0 l 250 0 m 417 0 l 417 819 l 458 819 l 458 0 l 417 0 m 583 0 l 583 819 l 625 819 l 625 0 l 583 0 m 667 0 l 667 819 l 708 819 l 708 0 l 667 0 m 750 0 l 750 819 l 792 819 l 792 0 l 750 0 m 833 0 l 833 819 l 958 819 l 958 0 l 833 0 m 1083 0 l 1083 819 l 1208 819 l 1208 0 l 1083 0 m 1250 0 l 1250 819 l 1292 819 l 1292 0 l 1250 0 m 654 -326 q 664 -286 654 -301 q 690 -253 672 -269 q 717 -221 708 -235 q 726 -183 726 -206 q 710 -146 726 -160 q 668 -131 694 -131 q 635 -137 649 -131 q 608 -156 619 -143 q 601 -164 603 -161 q 600 -174 600 -168 l 599 -176 l 594 -174 l 571 -153 q 611 -112 589 -126 q 671 -100 635 -100 q 736 -121 711 -100 q 761 -181 761 -143 q 751 -228 761 -210 q 721 -264 740 -244 q 696 -293 704 -281 q 689 -326 689 -306 l 689 -347 l 654 -347 l 654 -326 m 672 -449 q 651 -440 660 -449 q 642 -419 642 -431 q 651 -399 642 -407 q 672 -390 660 -390 q 693 -399 685 -390 q 701 -419 701 -407 q 693 -440 701 -431 q 672 -449 685 -449 z "},"@":{"ha":1333,"x_min":0,"x_max":1292,"o":"m 0 0 l 0 819 l 42 819 l 42 0 l 0 0 m 83 0 l 83 819 l 125 819 l 125 0 l 83 0 m 250 0 l 250 819 l 292 819 l 292 0 l 250 0 m 417 0 l 417 819 l 458 819 l 458 0 l 417 0 m 583 0 l 583 819 l 625 819 l 625 0 l 583 0 m 667 0 l 667 819 l 708 819 l 708 0 l 667 0 m 833 0 l 833 819 l 958 819 l 958 0 l 833 0 m 1000 0 l 1000 819 l 1042 819 l 1042 0 l 1000 0 m 1083 0 l 1083 819 l 1125 819 l 1125 0 l 1083 0 m 1167 0 l 1167 819 l 1292 819 l 1292 0 l 1167 0 m 690 -449 q 624 -431 654 -449 q 572 -374 592 -411 q 554 -282 554 -336 q 572 -190 554 -228 q 618 -135 590 -153 q 678 -117 646 -117 q 726 -129 704 -117 q 764 -169 750 -143 q 778 -232 778 -196 l 778 -353 l 747 -353 l 747 -333 q 697 -357 726 -357 q 647 -337 667 -357 q 628 -289 628 -318 q 654 -235 628 -256 q 729 -214 681 -214 q 744 -214 740 -214 q 726 -164 744 -183 q 676 -144 707 -144 q 629 -158 650 -144 q 596 -203 608 -174 q 583 -276 583 -232 q 599 -356 583 -322 q 639 -403 614 -387 q 693 -419 664 -419 q 749 -403 722 -419 l 763 -428 q 690 -449 729 -449 m 701 -328 q 736 -308 725 -328 q 747 -240 747 -287 q 729 -239 735 -239 q 678 -251 696 -239 q 660 -286 660 -264 q 671 -317 660 -306 q 701 -328 681 -328 z "},"A":{"ha":667,"x_min":0,"x_max":625,"o":"m 0 0 l 0 819 l 125 819 l 125 0 l 0 0 m 167 0 l 167 819 l 208 819 l 208 0 l 167 0 m 250 0 l 250 819 l 292 819 l 292 0 l 250 0 m 417 0 l 417 819 l 458 819 l 458 0 l 417 0 m 500 0 l 500 819 l 625 819 l 625 0 l 500 0 m 385 -349 l 281 -349 l 249 -443 l 213 -443 l 331 -115 l 335 -115 l 454 -443 l 417 -443 l 385 -349 m 375 -321 l 333 -199 l 290 -321 l 375 -321 z "},"B":{"ha":667,"x_min":0,"x_max":625,"o":"m 0 0 l 0 819 l 42 819 l 42 0 l 0 0 m 83 0 l 83 819 l 208 819 l 208 0 l 83 0 m 250 0 l 250 819 l 292 819 l 292 0 l 250 0 m 417 0 l 417 819 l 458 819 l 458 0 l 417 0 m 500 0 l 500 819 l 625 819 l 625 0 l 500 0 m 229 -121 l 321 -121 q 400 -142 374 -121 q 428 -200 428 -162 q 415 -243 428 -224 q 379 -271 401 -262 q 424 -303 407 -281 q 440 -353 440 -326 q 410 -419 440 -394 q 319 -443 381 -443 l 229 -443 l 229 -121 m 315 -254 q 392 -203 392 -254 q 374 -167 392 -181 q 321 -151 357 -151 l 264 -151 l 264 -254 l 315 -254 m 326 -411 q 401 -350 401 -411 q 317 -285 401 -285 l 264 -285 l 264 -411 l 326 -411 z "},"C":{"ha":667,"x_min":0,"x_max":625,"o":"m 0 0 l 0 819 l 125 819 l 125 0 l 0 0 m 167 0 l 167 819 l 292 819 l 292 0 l 167 0 m 333 0 l 333 819 l 375 819 l 375 0 l 333 0 m 500 0 l 500 819 l 542 819 l 542 0 l 500 0 m 583 0 l 583 819 l 625 819 l 625 0 l 583 0 m 351 -449 q 288 -431 315 -449 q 242 -376 258 -412 q 225 -283 225 -339 q 243 -187 225 -225 q 289 -135 261 -151 q 349 -119 317 -119 q 408 -136 383 -119 q 446 -182 433 -153 l 415 -197 l 411 -199 l 410 -196 l 410 -192 q 403 -176 410 -186 q 378 -154 392 -161 q 349 -147 364 -147 q 283 -183 307 -147 q 261 -282 261 -218 q 272 -353 261 -321 q 304 -400 285 -383 q 350 -417 325 -417 q 386 -407 369 -417 q 415 -378 404 -396 l 442 -396 q 404 -435 425 -422 q 351 -449 382 -449 z "},"D":{"ha":667,"x_min":0,"x_max":625,"o":"m 0 0 l 0 819 l 42 819 l 42 0 l 0 0 m 83 0 l 83 819 l 125 819 l 125 0 l 83 0 m 167 0 l 167 819 l 292 819 l 292 0 l 167 0 m 417 0 l 417 819 l 458 819 l 458 0 l 417 0 m 500 0 l 500 819 l 625 819 l 625 0 l 500 0 m 232 -121 l 307 -121 q 369 -132 347 -121 q 410 -165 393 -143 q 442 -283 442 -207 q 406 -403 439 -362 q 301 -443 372 -444 l 232 -443 l 232 -121 m 299 -415 q 406 -286 406 -415 q 382 -186 406 -221 q 304 -151 357 -151 l 267 -151 l 267 -415 l 299 -415 z "},"E":{"ha":667,"x_min":0,"x_max":625,"o":"m 0 0 l 0 819 l 125 819 l 125 0 l 0 0 m 167 0 l 167 819 l 208 819 l 208 0 l 167 0 m 250 0 l 250 819 l 375 819 l 375 0 l 250 0 m 500 0 l 500 819 l 542 819 l 542 0 l 500 0 m 583 0 l 583 819 l 625 819 l 625 0 l 583 0 m 235 -121 l 432 -121 l 432 -153 l 268 -153 l 268 -258 l 404 -258 l 404 -292 l 268 -292 l 268 -411 l 431 -411 l 431 -443 l 235 -443 l 235 -121 z "},"F":{"ha":667,"x_min":0,"x_max":625,"o":"m 0 0 l 0 819 l 42 819 l 42 0 l 0 0 m 83 0 l 83 819 l 208 819 l 208 0 l 83 0 m 250 0 l 250 819 l 375 819 l 375 0 l 250 0 m 500 0 l 500 819 l 542 819 l 542 0 l 500 0 m 583 0 l 583 819 l 625 819 l 625 0 l 583 0 m 244 -121 l 429 -121 l 429 -153 l 281 -153 l 281 -254 l 401 -254 l 401 -285 l 281 -285 l 281 -443 l 244 -443 l 244 -121 z "},"G":{"ha":667,"x_min":0,"x_max":625,"o":"m 0 0 l 0 819 l 42 819 l 42 0 l 0 0 m 83 0 l 83 819 l 125 819 l 125 0 l 83 0 m 167 0 l 167 819 l 208 819 l 208 0 l 167 0 m 333 0 l 333 819 l 458 819 l 458 0 l 333 0 m 500 0 l 500 819 l 625 819 l 625 0 l 500 0 m 347 -449 q 281 -428 308 -449 q 238 -371 253 -408 q 222 -286 222 -335 q 242 -185 222 -222 q 289 -132 261 -147 q 344 -118 317 -118 q 400 -133 374 -118 q 440 -172 428 -147 l 415 -192 l 411 -196 l 410 -193 q 408 -185 410 -189 q 400 -175 406 -182 q 375 -156 388 -161 q 344 -150 363 -150 q 282 -179 307 -150 q 258 -278 258 -210 q 282 -381 258 -344 q 347 -417 306 -417 q 379 -411 363 -417 q 408 -397 397 -407 l 408 -321 l 350 -321 l 350 -289 l 442 -289 l 442 -415 q 347 -449 396 -449 z "},"H":{"ha":667,"x_min":0,"x_max":625,"o":"m 0 0 l 0 819 l 125 819 l 125 0 l 0 0 m 167 0 l 167 819 l 208 819 l 208 0 l 167 0 m 250 0 l 250 819 l 292 819 l 292 0 l 250 0 m 417 0 l 417 819 l 542 819 l 542 0 l 417 0 m 583 0 l 583 819 l 625 819 l 625 0 l 583 0 m 231 -121 l 272 -121 l 272 -125 q 268 -132 269 -128 q 268 -144 268 -135 l 268 -258 l 393 -258 l 393 -121 l 436 -121 l 436 -125 q 432 -132 433 -128 q 432 -144 432 -135 l 432 -443 l 393 -443 l 393 -290 l 268 -290 l 268 -443 l 231 -443 l 231 -121 z "},"I":{"ha":667,"x_min":0,"x_max":625,"o":"m 0 0 l 0 819 l 42 819 l 42 0 l 0 0 m 83 0 l 83 819 l 208 819 l 208 0 l 83 0 m 250 0 l 250 819 l 292 819 l 292 0 l 250 0 m 417 0 l 417 819 l 542 819 l 542 0 l 417 0 m 583 0 l 583 819 l 625 819 l 625 0 l 583 0 m 246 -412 l 310 -412 l 310 -151 l 250 -151 l 250 -121 l 410 -121 l 410 -151 l 346 -151 l 346 -412 l 413 -412 l 413 -443 l 246 -443 l 246 -412 z "},"J":{"ha":667,"x_min":0,"x_max":625,"o":"m 0 0 l 0 819 l 42 819 l 42 0 l 0 0 m 83 0 l 83 819 l 125 819 l 125 0 l 83 0 m 167 0 l 167 819 l 292 819 l 292 0 l 167 0 m 417 0 l 417 819 l 542 819 l 542 0 l 417 0 m 583 0 l 583 819 l 625 819 l 625 0 l 583 0 m 307 -449 q 229 -412 258 -449 l 250 -387 l 254 -383 l 257 -385 q 258 -394 257 -390 q 267 -403 261 -397 q 306 -417 285 -417 q 343 -399 332 -417 q 356 -336 356 -381 l 356 -151 l 293 -151 l 293 -121 l 440 -121 l 440 -151 l 390 -151 l 390 -335 q 381 -400 392 -375 q 350 -437 369 -425 q 307 -449 331 -449 z "},"K":{"ha":667,"x_min":0,"x_max":625,"o":"m 0 0 l 0 819 l 125 819 l 125 0 l 0 0 m 167 0 l 167 819 l 208 819 l 208 0 l 167 0 m 250 0 l 250 819 l 292 819 l 292 0 l 250 0 m 333 0 l 333 819 l 375 819 l 375 0 l 333 0 m 500 0 l 500 819 l 625 819 l 625 0 l 500 0 m 290 -282 l 264 -310 l 264 -443 l 226 -443 l 226 -121 l 269 -121 l 269 -125 q 265 -132 267 -128 q 264 -144 264 -135 l 264 -269 l 399 -119 q 425 -121 411 -121 l 439 -121 l 317 -260 l 447 -443 l 401 -444 l 290 -282 z "},"L":{"ha":667,"x_min":0,"x_max":625,"o":"m 0 0 l 0 819 l 42 819 l 42 0 l 0 0 m 83 0 l 83 819 l 208 819 l 208 0 l 83 0 m 250 0 l 250 819 l 292 819 l 292 0 l 250 0 m 333 0 l 333 819 l 375 819 l 375 0 l 333 0 m 500 0 l 500 819 l 625 819 l 625 0 l 500 0 m 239 -121 l 281 -121 l 281 -125 q 276 -132 278 -128 q 276 -144 276 -135 l 276 -412 l 431 -412 l 431 -443 l 239 -443 l 239 -121 z "},"M":{"ha":667,"x_min":0,"x_max":625,"o":"m 0 0 l 0 819 l 125 819 l 125 0 l 0 0 m 167 0 l 167 819 l 292 819 l 292 0 l 167 0 m 333 0 l 333 819 l 375 819 l 375 0 l 333 0 m 417 0 l 417 819 l 458 819 l 458 0 l 417 0 m 583 0 l 583 819 l 625 819 l 625 0 l 583 0 m 225 -121 l 254 -121 l 333 -279 l 414 -121 l 442 -121 l 442 -443 l 407 -443 l 407 -200 l 338 -331 l 324 -331 l 258 -201 l 258 -443 l 225 -443 l 225 -121 z "},"N":{"ha":667,"x_min":0,"x_max":625,"o":"m 0 0 l 0 819 l 42 819 l 42 0 l 0 0 m 83 0 l 83 819 l 125 819 l 125 0 l 83 0 m 167 0 l 167 819 l 292 819 l 292 0 l 167 0 m 333 0 l 333 819 l 375 819 l 375 0 l 333 0 m 500 0 l 500 819 l 625 819 l 625 0 l 500 0 m 231 -121 l 265 -121 l 400 -360 l 400 -121 l 440 -121 l 440 -125 q 436 -132 436 -128 q 435 -144 435 -135 l 435 -443 l 407 -443 l 264 -190 l 264 -443 l 231 -443 l 231 -121 z "},"O":{"ha":667,"x_min":0,"x_max":625,"o":"m 0 0 l 0 819 l 125 819 l 125 0 l 0 0 m 167 0 l 167 819 l 208 819 l 208 0 l 167 0 m 250 0 l 250 819 l 375 819 l 375 0 l 250 0 m 417 0 l 417 819 l 458 819 l 458 0 l 417 0 m 583 0 l 583 819 l 625 819 l 625 0 l 583 0 m 333 -449 q 249 -406 278 -449 q 218 -283 218 -362 q 249 -162 218 -207 q 333 -119 279 -119 q 418 -162 388 -119 q 449 -283 449 -207 q 418 -406 449 -362 q 333 -449 389 -449 m 333 -417 q 390 -383 371 -417 q 411 -283 411 -349 q 390 -186 411 -222 q 333 -151 369 -151 q 276 -186 297 -151 q 256 -283 256 -222 q 275 -383 256 -349 q 333 -417 296 -417 z "},"P":{"ha":667,"x_min":0,"x_max":625,"o":"m 0 0 l 0 819 l 42 819 l 42 0 l 0 0 m 83 0 l 83 819 l 208 819 l 208 0 l 83 0 m 250 0 l 250 819 l 375 819 l 375 0 l 250 0 m 417 0 l 417 819 l 458 819 l 458 0 l 417 0 m 583 0 l 583 819 l 625 819 l 625 0 l 583 0 m 235 -121 l 338 -121 q 414 -147 389 -121 q 440 -212 440 -172 q 415 -276 440 -251 q 340 -301 390 -301 l 272 -301 l 272 -443 l 235 -443 l 235 -121 m 336 -269 q 386 -254 371 -269 q 403 -214 403 -240 q 386 -172 403 -187 q 338 -156 369 -156 l 272 -156 l 272 -269 l 336 -269 z "},"Q":{"ha":667,"x_min":0,"x_max":625,"o":"m 0 0 l 0 819 l 42 819 l 42 0 l 0 0 m 83 0 l 83 819 l 125 819 l 125 0 l 83 0 m 167 0 l 167 819 l 208 819 l 208 0 l 167 0 m 250 0 l 250 819 l 375 819 l 375 0 l 250 0 m 500 0 l 500 819 l 625 819 l 625 0 l 500 0 m 411 -518 q 342 -504 361 -519 q 321 -447 321 -487 q 271 -424 294 -443 q 233 -369 247 -404 q 219 -283 219 -333 q 236 -187 219 -224 q 281 -133 254 -150 q 333 -118 307 -118 q 392 -135 365 -118 q 433 -190 418 -153 q 447 -282 449 -228 q 424 -394 447 -354 q 353 -447 400 -436 q 363 -475 353 -465 q 390 -485 371 -485 l 432 -483 l 432 -518 l 411 -518 m 336 -415 q 372 -401 356 -415 q 401 -361 390 -389 q 413 -292 413 -335 q 400 -206 413 -237 q 371 -162 389 -175 q 333 -149 353 -149 q 275 -186 296 -149 q 254 -276 254 -224 q 276 -376 254 -339 q 336 -415 299 -415 z "},"R":{"ha":667,"x_min":0,"x_max":625,"o":"m 0 0 l 0 819 l 125 819 l 125 0 l 0 0 m 167 0 l 167 819 l 208 819 l 208 0 l 167 0 m 250 0 l 250 819 l 292 819 l 292 0 l 250 0 m 333 0 l 333 819 l 458 819 l 458 0 l 333 0 m 583 0 l 583 819 l 625 819 l 625 0 l 583 0 m 233 -121 l 328 -121 q 408 -146 383 -121 q 435 -214 435 -169 q 417 -267 435 -242 q 369 -300 399 -292 l 444 -443 l 404 -443 l 332 -301 l 269 -301 l 269 -443 l 233 -443 l 233 -121 m 332 -269 q 382 -254 365 -269 q 397 -214 397 -240 q 382 -171 397 -187 q 332 -156 365 -156 l 269 -156 l 269 -269 l 332 -269 z "},"S":{"ha":667,"x_min":0,"x_max":625,"o":"m 0 0 l 0 819 l 42 819 l 42 0 l 0 0 m 83 0 l 83 819 l 208 819 l 208 0 l 83 0 m 250 0 l 250 819 l 292 819 l 292 0 l 250 0 m 333 0 l 333 819 l 458 819 l 458 0 l 333 0 m 583 0 l 583 819 l 625 819 l 625 0 l 583 0 m 332 -449 q 231 -407 269 -449 l 250 -375 l 251 -371 l 256 -372 q 257 -378 256 -374 q 260 -385 257 -381 q 265 -390 261 -387 q 338 -415 294 -415 q 385 -400 365 -415 q 404 -361 404 -383 q 397 -335 404 -346 q 376 -315 392 -325 q 329 -292 361 -306 q 261 -250 282 -274 q 242 -197 242 -226 q 268 -139 242 -161 q 339 -117 294 -117 q 389 -128 365 -117 q 429 -157 411 -139 l 406 -189 l 403 -186 q 401 -182 403 -185 q 399 -175 401 -178 q 393 -168 397 -171 q 367 -151 382 -157 q 333 -147 353 -147 q 294 -161 308 -147 q 279 -194 279 -175 q 285 -221 279 -210 q 308 -242 292 -232 q 358 -265 325 -253 q 422 -304 404 -285 q 439 -356 439 -325 q 428 -400 439 -379 q 392 -435 415 -421 q 332 -449 367 -449 z "},"T":{"ha":667,"x_min":0,"x_max":625,"o":"m 0 0 l 0 819 l 42 819 l 42 0 l 0 0 m 83 0 l 83 819 l 125 819 l 125 0 l 83 0 m 167 0 l 167 819 l 292 819 l 292 0 l 167 0 m 333 0 l 333 819 l 458 819 l 458 0 l 333 0 m 583 0 l 583 819 l 625 819 l 625 0 l 583 0 m 311 -153 l 221 -153 l 221 -121 l 443 -121 l 443 -153 l 349 -153 l 349 -443 l 311 -443 l 311 -153 z "},"U":{"ha":667,"x_min":0,"x_max":625,"o":"m 0 0 l 0 819 l 125 819 l 125 0 l 0 0 m 250 0 l 250 819 l 292 819 l 292 0 l 250 0 m 333 0 l 333 819 l 375 819 l 375 0 l 333 0 m 417 0 l 417 819 l 458 819 l 458 0 l 417 0 m 500 0 l 500 819 l 625 819 l 625 0 l 500 0 m 333 -449 q 257 -418 283 -449 q 231 -332 231 -387 l 231 -121 l 271 -121 l 271 -125 q 267 -132 267 -128 q 265 -144 265 -135 l 265 -332 q 282 -396 265 -374 q 335 -418 297 -418 q 388 -396 371 -418 q 404 -331 404 -374 l 404 -121 l 439 -121 l 439 -331 q 411 -419 439 -390 q 333 -449 383 -449 z "},"V":{"ha":667,"x_min":0,"x_max":625,"o":"m 0 0 l 0 819 l 42 819 l 42 0 l 0 0 m 167 0 l 167 819 l 292 819 l 292 0 l 167 0 m 333 0 l 333 819 l 375 819 l 375 0 l 333 0 m 417 0 l 417 819 l 458 819 l 458 0 l 417 0 m 500 0 l 500 819 l 625 819 l 625 0 l 500 0 m 217 -121 l 254 -121 l 338 -368 l 415 -121 l 451 -121 l 343 -444 l 326 -444 l 217 -121 z "},"W":{"ha":667,"x_min":0,"x_max":625,"o":"m 0 0 l 0 819 l 125 819 l 125 0 l 0 0 m 250 0 l 250 819 l 375 819 l 375 0 l 250 0 m 417 0 l 417 819 l 458 819 l 458 0 l 417 0 m 500 0 l 500 819 l 542 819 l 542 0 l 500 0 m 583 0 l 583 819 l 625 819 l 625 0 l 583 0 m 213 -121 l 246 -121 l 281 -339 l 333 -144 l 344 -144 l 396 -340 l 425 -121 l 456 -121 l 406 -443 l 392 -443 l 336 -233 l 279 -443 l 264 -443 l 213 -121 z "},"X":{"ha":667,"x_min":0,"x_max":625,"o":"m 0 0 l 0 819 l 42 819 l 42 0 l 0 0 m 167 0 l 167 819 l 208 819 l 208 0 l 167 0 m 250 0 l 250 819 l 375 819 l 375 0 l 250 0 m 417 0 l 417 819 l 458 819 l 458 0 l 417 0 m 500 0 l 500 819 l 625 819 l 625 0 l 500 0 m 313 -279 l 226 -121 l 265 -121 l 333 -243 l 400 -121 l 436 -121 l 354 -278 l 446 -443 l 406 -443 l 333 -315 l 264 -443 l 225 -443 l 313 -279 z "},"Y":{"ha":667,"x_min":0,"x_max":625,"o":"m 0 0 l 0 819 l 125 819 l 125 0 l 0 0 m 250 0 l 250 819 l 292 819 l 292 0 l 250 0 m 333 0 l 333 819 l 458 819 l 458 0 l 333 0 m 500 0 l 500 819 l 542 819 l 542 0 l 500 0 m 583 0 l 583 819 l 625 819 l 625 0 l 583 0 m 318 -317 l 218 -121 l 260 -121 l 339 -278 l 410 -121 l 449 -121 l 357 -317 l 357 -443 l 318 -443 l 318 -317 z "},"Z":{"ha":667,"x_min":0,"x_max":625,"o":"m 0 0 l 0 819 l 42 819 l 42 0 l 0 0 m 167 0 l 167 819 l 292 819 l 292 0 l 167 0 m 333 0 l 333 819 l 458 819 l 458 0 l 333 0 m 500 0 l 500 819 l 542 819 l 542 0 l 500 0 m 583 0 l 583 819 l 625 819 l 625 0 l 583 0 m 231 -418 l 392 -154 l 236 -154 l 236 -121 l 435 -121 l 435 -147 l 275 -411 l 421 -411 q 433 -410 429 -411 q 440 -406 436 -408 l 443 -406 l 443 -443 l 231 -443 l 231 -418 z "},"[":{"ha":1333,"x_min":0,"x_max":1292,"o":"m 0 0 l 0 819 l 42 819 l 42 0 l 0 0 m 83 0 l 83 819 l 125 819 l 125 0 l 83 0 m 250 0 l 250 819 l 292 819 l 292 0 l 250 0 m 417 0 l 417 819 l 458 819 l 458 0 l 417 0 m 583 0 l 583 819 l 625 819 l 625 0 l 583 0 m 667 0 l 667 819 l 792 819 l 792 0 l 667 0 m 833 0 l 833 819 l 875 819 l 875 0 l 833 0 m 917 0 l 917 819 l 958 819 l 958 0 l 917 0 m 1000 0 l 1000 819 l 1042 819 l 1042 0 l 1000 0 m 1167 0 l 1167 819 l 1292 819 l 1292 0 l 1167 0 m 606 -97 l 753 -97 l 753 -128 l 638 -128 l 638 -460 l 753 -460 l 753 -489 l 606 -489 l 606 -97 z "},"\\":{"ha":1333,"x_min":0,"x_max":1292,"o":"m 0 0 l 0 819 l 42 819 l 42 0 l 0 0 m 83 0 l 83 819 l 125 819 l 125 0 l 83 0 m 250 0 l 250 819 l 292 819 l 292 0 l 250 0 m 417 0 l 417 819 l 458 819 l 458 0 l 417 0 m 583 0 l 583 819 l 625 819 l 625 0 l 583 0 m 667 0 l 667 819 l 708 819 l 708 0 l 667 0 m 750 0 l 750 819 l 875 819 l 875 0 l 750 0 m 917 0 l 917 819 l 958 819 l 958 0 l 917 0 m 1000 0 l 1000 819 l 1042 819 l 1042 0 l 1000 0 m 1167 0 l 1167 819 l 1292 819 l 1292 0 l 1167 0 m 571 -115 l 601 -100 l 763 -450 l 733 -465 l 571 -115 z "},"]":{"ha":1333,"x_min":0,"x_max":1292,"o":"m 0 0 l 0 819 l 42 819 l 42 0 l 0 0 m 83 0 l 83 819 l 125 819 l 125 0 l 83 0 m 250 0 l 250 819 l 292 819 l 292 0 l 250 0 m 417 0 l 417 819 l 458 819 l 458 0 l 417 0 m 583 0 l 583 819 l 625 819 l 625 0 l 583 0 m 667 0 l 667 819 l 792 819 l 792 0 l 667 0 m 833 0 l 833 819 l 958 819 l 958 0 l 833 0 m 1000 0 l 1000 819 l 1042 819 l 1042 0 l 1000 0 m 1083 0 l 1083 819 l 1125 819 l 1125 0 l 1083 0 m 1250 0 l 1250 819 l 1292 819 l 1292 0 l 1250 0 m 606 -489 l 606 -460 l 721 -460 l 721 -128 l 606 -128 l 606 -97 l 753 -97 l 753 -489 l 606 -489 z "},"^":{"ha":1333,"x_min":0,"x_max":1292,"o":"m 0 0 l 0 819 l 42 819 l 42 0 l 0 0 m 83 0 l 83 819 l 125 819 l 125 0 l 83 0 m 250 0 l 250 819 l 292 819 l 292 0 l 250 0 m 417 0 l 417 819 l 458 819 l 458 0 l 417 0 m 583 0 l 583 819 l 625 819 l 625 0 l 583 0 m 667 0 l 667 819 l 708 819 l 708 0 l 667 0 m 750 0 l 750 819 l 792 819 l 792 0 l 750 0 m 833 0 l 833 819 l 958 819 l 958 0 l 833 0 m 1000 0 l 1000 819 l 1042 819 l 1042 0 l 1000 0 m 1167 0 l 1167 819 l 1292 819 l 1292 0 l 1167 0 m 586 -254 l 664 -121 l 676 -121 l 746 -253 l 718 -265 l 668 -175 l 611 -265 l 586 -254 z "},"_":{"ha":1333,"x_min":0,"x_max":1292,"o":"m 0 0 l 0 819 l 42 819 l 42 0 l 0 0 m 83 0 l 83 819 l 125 819 l 125 0 l 83 0 m 250 0 l 250 819 l 292 819 l 292 0 l 250 0 m 417 0 l 417 819 l 458 819 l 458 0 l 417 0 m 583 0 l 583 819 l 625 819 l 625 0 l 583 0 m 667 0 l 667 819 l 792 819 l 792 0 l 667 0 m 833 0 l 833 819 l 875 819 l 875 0 l 833 0 m 917 0 l 917 819 l 1042 819 l 1042 0 l 917 0 m 1083 0 l 1083 819 l 1125 819 l 1125 0 l 1083 0 m 1250 0 l 1250 819 l 1292 819 l 1292 0 l 1250 0 m 556 -453 l 778 -453 l 778 -485 l 556 -485 l 556 -453 z "},"`":{"ha":1333,"x_min":0,"x_max":1292,"o":"m 0 0 l 0 819 l 42 819 l 42 0 l 0 0 m 83 0 l 83 819 l 125 819 l 125 0 l 83 0 m 250 0 l 250 819 l 292 819 l 292 0 l 250 0 m 417 0 l 417 819 l 458 819 l 458 0 l 417 0 m 583 0 l 583 819 l 625 819 l 625 0 l 583 0 m 667 0 l 667 819 l 792 819 l 792 0 l 667 0 m 917 0 l 917 819 l 1042 819 l 1042 0 l 917 0 m 1083 0 l 1083 819 l 1125 819 l 1125 0 l 1083 0 m 1167 0 l 1167 819 l 1208 819 l 1208 0 l 1167 0 m 1250 0 l 1250 819 l 1292 819 l 1292 0 l 1250 0 m 617 -111 l 646 -90 l 689 -168 l 669 -182 l 617 -111 z "},"a":{"ha":1333,"x_min":0,"x_max":1292,"o":"m 0 0 l 0 819 l 42 819 l 42 0 l 0 0 m 167 0 l 167 819 l 208 819 l 208 0 l 167 0 m 250 0 l 250 819 l 292 819 l 292 0 l 250 0 m 417 0 l 417 819 l 458 819 l 458 0 l 417 0 m 583 0 l 583 819 l 625 819 l 625 0 l 583 0 m 667 0 l 667 819 l 792 819 l 792 0 l 667 0 m 833 0 l 833 819 l 875 819 l 875 0 l 833 0 m 917 0 l 917 819 l 958 819 l 958 0 l 917 0 m 1083 0 l 1083 819 l 1125 819 l 1125 0 l 1083 0 m 1167 0 l 1167 819 l 1292 819 l 1292 0 l 1167 0 m 664 -201 q 740 -228 714 -201 q 767 -318 767 -254 l 767 -443 l 726 -443 l 726 -407 q 646 -449 706 -449 q 585 -431 607 -449 q 563 -383 563 -412 q 579 -340 563 -358 q 622 -311 594 -322 q 682 -301 649 -301 q 735 -304 711 -301 q 714 -249 732 -265 q 661 -232 696 -232 q 628 -239 643 -232 q 597 -258 611 -246 l 579 -235 q 664 -201 613 -201 m 650 -421 q 711 -397 689 -421 q 735 -333 733 -375 q 685 -329 711 -329 q 622 -343 646 -329 q 600 -382 600 -356 q 650 -421 600 -421 z "},"b":{"ha":1333,"x_min":0,"x_max":1292,"o":"m 0 0 l 0 819 l 42 819 l 42 0 l 0 0 m 167 0 l 167 819 l 208 819 l 208 0 l 167 0 m 250 0 l 250 819 l 292 819 l 292 0 l 250 0 m 417 0 l 417 819 l 458 819 l 458 0 l 417 0 m 583 0 l 583 819 l 625 819 l 625 0 l 583 0 m 667 0 l 667 819 l 708 819 l 708 0 l 667 0 m 750 0 l 750 819 l 875 819 l 875 0 l 750 0 m 917 0 l 917 819 l 958 819 l 958 0 l 917 0 m 1083 0 l 1083 819 l 1125 819 l 1125 0 l 1083 0 m 1167 0 l 1167 819 l 1292 819 l 1292 0 l 1167 0 m 675 -449 q 636 -439 654 -449 q 606 -412 618 -429 l 592 -443 l 568 -443 l 568 -100 l 611 -100 l 611 -103 q 607 -110 608 -107 q 606 -122 606 -114 l 606 -243 q 638 -212 618 -224 q 676 -201 657 -201 q 747 -232 721 -201 q 774 -322 774 -264 q 760 -392 774 -362 q 722 -435 746 -421 q 675 -449 700 -449 m 671 -415 q 717 -393 699 -415 q 735 -325 735 -372 q 718 -257 735 -279 q 671 -233 700 -233 q 624 -260 642 -233 q 606 -326 606 -285 q 671 -415 606 -415 z "},"c":{"ha":1333,"x_min":0,"x_max":1292,"o":"m 0 0 l 0 819 l 42 819 l 42 0 l 0 0 m 167 0 l 167 819 l 208 819 l 208 0 l 167 0 m 250 0 l 250 819 l 292 819 l 292 0 l 250 0 m 417 0 l 417 819 l 458 819 l 458 0 l 417 0 m 583 0 l 583 819 l 625 819 l 625 0 l 583 0 m 667 0 l 667 819 l 792 819 l 792 0 l 667 0 m 833 0 l 833 819 l 958 819 l 958 0 l 833 0 m 1000 0 l 1000 819 l 1042 819 l 1042 0 l 1000 0 m 1167 0 l 1167 819 l 1208 819 l 1208 0 l 1167 0 m 1250 0 l 1250 819 l 1292 819 l 1292 0 l 1250 0 m 685 -449 q 624 -433 650 -449 q 582 -389 597 -417 q 567 -325 567 -361 q 582 -262 567 -290 q 624 -218 597 -235 q 685 -203 650 -203 q 736 -214 713 -203 q 774 -246 758 -225 l 750 -269 l 747 -272 l 744 -269 q 742 -261 744 -265 q 735 -253 740 -258 q 711 -239 724 -243 q 681 -233 697 -233 q 643 -244 660 -233 q 615 -276 625 -256 q 604 -322 604 -296 q 615 -371 604 -349 q 644 -403 626 -392 q 686 -415 664 -415 q 749 -386 722 -415 l 769 -411 q 685 -449 735 -449 z "},"d":{"ha":1333,"x_min":0,"x_max":1292,"o":"m 0 0 l 0 819 l 42 819 l 42 0 l 0 0 m 167 0 l 167 819 l 208 819 l 208 0 l 167 0 m 250 0 l 250 819 l 292 819 l 292 0 l 250 0 m 417 0 l 417 819 l 458 819 l 458 0 l 417 0 m 583 0 l 583 819 l 625 819 l 625 0 l 583 0 m 667 0 l 667 819 l 708 819 l 708 0 l 667 0 m 750 0 l 750 819 l 792 819 l 792 0 l 750 0 m 833 0 l 833 819 l 958 819 l 958 0 l 833 0 m 1083 0 l 1083 819 l 1125 819 l 1125 0 l 1083 0 m 1167 0 l 1167 819 l 1292 819 l 1292 0 l 1167 0 m 658 -449 q 611 -433 633 -449 q 575 -392 589 -419 q 561 -322 561 -362 q 575 -254 561 -282 q 613 -214 590 -228 q 660 -201 635 -201 q 701 -211 685 -201 q 729 -242 719 -222 l 729 -100 l 768 -100 l 768 -103 q 764 -110 765 -107 q 764 -122 764 -114 l 764 -407 q 765 -426 764 -419 q 769 -443 765 -435 l 733 -443 q 728 -426 729 -435 q 728 -407 728 -419 q 699 -437 717 -426 q 658 -449 681 -449 m 664 -415 q 711 -390 696 -415 q 726 -324 726 -365 q 710 -257 726 -282 q 661 -232 693 -232 q 614 -254 631 -232 q 597 -317 597 -278 q 614 -389 597 -362 q 664 -415 632 -415 z "},"e":{"ha":1333,"x_min":0,"x_max":1292,"o":"m 0 0 l 0 819 l 42 819 l 42 0 l 0 0 m 167 0 l 167 819 l 208 819 l 208 0 l 167 0 m 250 0 l 250 819 l 292 819 l 292 0 l 250 0 m 417 0 l 417 819 l 458 819 l 458 0 l 417 0 m 583 0 l 583 819 l 625 819 l 625 0 l 583 0 m 667 0 l 667 819 l 792 819 l 792 0 l 667 0 m 833 0 l 833 819 l 875 819 l 875 0 l 833 0 m 917 0 l 917 819 l 1042 819 l 1042 0 l 917 0 m 1167 0 l 1167 819 l 1208 819 l 1208 0 l 1167 0 m 1250 0 l 1250 819 l 1292 819 l 1292 0 l 1250 0 m 678 -449 q 594 -417 625 -449 q 563 -326 563 -385 q 578 -258 563 -287 q 617 -217 592 -231 q 671 -201 640 -201 q 740 -229 714 -201 q 767 -314 767 -258 q 767 -331 767 -319 l 599 -331 q 622 -396 600 -374 q 679 -418 644 -418 q 740 -392 717 -418 l 761 -412 q 678 -449 731 -449 m 729 -301 q 713 -249 729 -268 q 668 -229 696 -229 q 624 -247 643 -229 q 600 -301 604 -265 l 729 -301 z "},"f":{"ha":1333,"x_min":0,"x_max":1292,"o":"m 0 0 l 0 819 l 42 819 l 42 0 l 0 0 m 167 0 l 167 819 l 208 819 l 208 0 l 167 0 m 250 0 l 250 819 l 292 819 l 292 0 l 250 0 m 417 0 l 417 819 l 458 819 l 458 0 l 417 0 m 583 0 l 583 819 l 625 819 l 625 0 l 583 0 m 667 0 l 667 819 l 708 819 l 708 0 l 667 0 m 750 0 l 750 819 l 875 819 l 875 0 l 750 0 m 917 0 l 917 819 l 1042 819 l 1042 0 l 917 0 m 1167 0 l 1167 819 l 1208 819 l 1208 0 l 1167 0 m 1250 0 l 1250 819 l 1292 819 l 1292 0 l 1250 0 m 621 -236 l 569 -236 l 569 -207 l 621 -207 l 621 -187 q 644 -119 621 -142 q 708 -97 668 -97 q 750 -104 731 -97 q 782 -129 769 -112 l 763 -157 l 758 -161 l 756 -158 q 756 -154 756 -157 q 753 -147 754 -151 q 746 -140 750 -143 q 731 -129 739 -133 q 708 -126 722 -126 q 671 -142 685 -126 q 657 -187 657 -156 l 657 -207 l 735 -207 l 735 -236 l 657 -236 l 657 -443 l 621 -443 l 621 -236 z "},"g":{"ha":1333,"x_min":0,"x_max":1292,"o":"m 0 0 l 0 819 l 42 819 l 42 0 l 0 0 m 167 0 l 167 819 l 208 819 l 208 0 l 167 0 m 250 0 l 250 819 l 292 819 l 292 0 l 250 0 m 417 0 l 417 819 l 458 819 l 458 0 l 417 0 m 583 0 l 583 819 l 625 819 l 625 0 l 583 0 m 667 0 l 667 819 l 708 819 l 708 0 l 667 0 m 750 0 l 750 819 l 792 819 l 792 0 l 750 0 m 833 0 l 833 819 l 875 819 l 875 0 l 833 0 m 1000 0 l 1000 819 l 1125 819 l 1125 0 l 1000 0 m 1167 0 l 1167 819 l 1292 819 l 1292 0 l 1167 0 m 783 -232 q 769 -231 778 -231 q 728 -242 744 -231 q 738 -281 738 -260 q 726 -322 738 -304 q 697 -353 717 -342 q 654 -362 679 -362 q 618 -356 635 -362 q 608 -378 608 -367 q 624 -396 608 -390 q 681 -401 640 -401 q 749 -415 731 -401 q 767 -461 767 -431 q 743 -511 767 -492 q 665 -532 718 -532 q 586 -517 614 -532 q 557 -471 557 -501 q 568 -439 557 -453 q 594 -418 578 -425 q 576 -386 576 -407 q 597 -343 576 -365 q 578 -315 585 -332 q 572 -281 572 -300 q 582 -239 572 -258 q 611 -210 592 -219 q 654 -199 629 -199 q 715 -222 692 -199 q 740 -206 726 -211 q 769 -200 753 -200 l 778 -201 l 783 -232 m 654 -332 q 692 -317 676 -332 q 706 -281 706 -303 q 692 -243 706 -258 q 654 -229 676 -229 q 617 -243 632 -229 q 603 -281 603 -258 q 617 -317 603 -303 q 654 -332 632 -332 m 733 -467 q 729 -447 733 -454 q 711 -436 725 -440 q 672 -433 699 -433 q 614 -426 636 -433 q 596 -443 601 -435 q 592 -467 592 -453 q 611 -494 592 -485 q 665 -504 631 -504 q 717 -494 700 -504 q 733 -467 733 -483 z "},"h":{"ha":1333,"x_min":0,"x_max":1292,"o":"m 0 0 l 0 819 l 42 819 l 42 0 l 0 0 m 167 0 l 167 819 l 208 819 l 208 0 l 167 0 m 250 0 l 250 819 l 292 819 l 292 0 l 250 0 m 417 0 l 417 819 l 458 819 l 458 0 l 417 0 m 583 0 l 583 819 l 625 819 l 625 0 l 583 0 m 667 0 l 667 819 l 792 819 l 792 0 l 667 0 m 833 0 l 833 819 l 875 819 l 875 0 l 833 0 m 917 0 l 917 819 l 958 819 l 958 0 l 917 0 m 1083 0 l 1083 819 l 1208 819 l 1208 0 l 1083 0 m 1250 0 l 1250 819 l 1292 819 l 1292 0 l 1250 0 m 575 -100 l 617 -100 l 617 -103 q 613 -110 613 -107 q 611 -122 611 -114 l 611 -249 q 646 -214 625 -228 q 689 -201 667 -201 q 742 -225 722 -201 q 761 -300 761 -249 l 761 -443 l 725 -443 l 725 -301 q 713 -250 725 -265 q 681 -233 700 -233 q 649 -243 664 -233 q 622 -269 632 -251 q 611 -307 611 -286 l 611 -443 l 575 -443 l 575 -100 z "},"i":{"ha":1333,"x_min":0,"x_max":1292,"o":"m 0 0 l 0 819 l 42 819 l 42 0 l 0 0 m 167 0 l 167 819 l 208 819 l 208 0 l 167 0 m 250 0 l 250 819 l 292 819 l 292 0 l 250 0 m 417 0 l 417 819 l 458 819 l 458 0 l 417 0 m 583 0 l 583 819 l 625 819 l 625 0 l 583 0 m 667 0 l 667 819 l 708 819 l 708 0 l 667 0 m 750 0 l 750 819 l 875 819 l 875 0 l 750 0 m 917 0 l 917 819 l 958 819 l 958 0 l 917 0 m 1083 0 l 1083 819 l 1208 819 l 1208 0 l 1083 0 m 1250 0 l 1250 819 l 1292 819 l 1292 0 l 1250 0 m 589 -412 l 650 -412 l 650 -237 l 592 -237 l 592 -207 l 686 -207 l 686 -412 l 742 -412 l 742 -443 l 589 -443 l 589 -412 m 667 -157 q 647 -150 656 -157 q 640 -131 640 -142 q 647 -112 640 -119 q 667 -104 654 -104 q 685 -112 676 -104 q 693 -131 693 -121 q 685 -150 693 -142 q 667 -157 676 -157 z "},"j":{"ha":1333,"x_min":0,"x_max":1292,"o":"m 0 0 l 0 819 l 42 819 l 42 0 l 0 0 m 167 0 l 167 819 l 208 819 l 208 0 l 167 0 m 250 0 l 250 819 l 292 819 l 292 0 l 250 0 m 417 0 l 417 819 l 458 819 l 458 0 l 417 0 m 583 0 l 583 819 l 625 819 l 625 0 l 583 0 m 667 0 l 667 819 l 708 819 l 708 0 l 667 0 m 750 0 l 750 819 l 792 819 l 792 0 l 750 0 m 833 0 l 833 819 l 958 819 l 958 0 l 833 0 m 1083 0 l 1083 819 l 1208 819 l 1208 0 l 1083 0 m 1250 0 l 1250 819 l 1292 819 l 1292 0 l 1250 0 m 638 -533 q 596 -525 615 -533 q 563 -500 576 -517 l 583 -472 l 586 -468 l 589 -469 q 590 -474 589 -471 q 593 -482 590 -478 q 599 -487 594 -485 q 638 -501 615 -501 q 676 -485 661 -501 q 690 -433 690 -468 l 690 -237 l 603 -237 l 603 -207 l 728 -207 l 728 -432 q 703 -508 728 -483 q 638 -533 678 -533 m 707 -157 q 688 -150 696 -157 q 681 -131 681 -142 q 688 -112 681 -119 q 707 -104 694 -104 q 725 -112 717 -104 q 733 -131 733 -121 q 725 -150 733 -142 q 707 -157 717 -157 z "},"k":{"ha":1333,"x_min":0,"x_max":1292,"o":"m 0 0 l 0 819 l 42 819 l 42 0 l 0 0 m 167 0 l 167 819 l 208 819 l 208 0 l 167 0 m 250 0 l 250 819 l 292 819 l 292 0 l 250 0 m 417 0 l 417 819 l 458 819 l 458 0 l 417 0 m 583 0 l 583 819 l 625 819 l 625 0 l 583 0 m 667 0 l 667 819 l 792 819 l 792 0 l 667 0 m 833 0 l 833 819 l 875 819 l 875 0 l 833 0 m 917 0 l 917 819 l 958 819 l 958 0 l 917 0 m 1000 0 l 1000 819 l 1042 819 l 1042 0 l 1000 0 m 1167 0 l 1167 819 l 1292 819 l 1292 0 l 1167 0 m 640 -325 l 610 -354 l 610 -443 l 572 -443 l 572 -100 l 614 -100 l 614 -103 q 610 -110 611 -107 q 610 -122 610 -114 l 610 -315 l 728 -206 q 756 -208 740 -208 l 768 -208 l 669 -303 l 785 -443 l 738 -444 l 640 -325 z "},"l":{"ha":1333,"x_min":0,"x_max":1292,"o":"m 0 0 l 0 819 l 42 819 l 42 0 l 0 0 m 167 0 l 167 819 l 208 819 l 208 0 l 167 0 m 250 0 l 250 819 l 292 819 l 292 0 l 250 0 m 417 0 l 417 819 l 458 819 l 458 0 l 417 0 m 583 0 l 583 819 l 625 819 l 625 0 l 583 0 m 667 0 l 667 819 l 708 819 l 708 0 l 667 0 m 750 0 l 750 819 l 875 819 l 875 0 l 750 0 m 917 0 l 917 819 l 958 819 l 958 0 l 917 0 m 1000 0 l 1000 819 l 1042 819 l 1042 0 l 1000 0 m 1167 0 l 1167 819 l 1292 819 l 1292 0 l 1167 0 m 578 -412 l 649 -412 l 649 -129 l 582 -129 l 582 -100 l 686 -100 l 686 -412 l 756 -412 l 756 -443 l 578 -443 l 578 -412 z "},"m":{"ha":1333,"x_min":0,"x_max":1292,"o":"m 0 0 l 0 819 l 42 819 l 42 0 l 0 0 m 167 0 l 167 819 l 208 819 l 208 0 l 167 0 m 250 0 l 250 819 l 292 819 l 292 0 l 250 0 m 417 0 l 417 819 l 458 819 l 458 0 l 417 0 m 583 0 l 583 819 l 625 819 l 625 0 l 583 0 m 667 0 l 667 819 l 792 819 l 792 0 l 667 0 m 833 0 l 833 819 l 958 819 l 958 0 l 833 0 m 1000 0 l 1000 819 l 1042 819 l 1042 0 l 1000 0 m 1083 0 l 1083 819 l 1125 819 l 1125 0 l 1083 0 m 1250 0 l 1250 819 l 1292 819 l 1292 0 l 1250 0 m 557 -207 l 592 -207 l 592 -231 q 613 -210 600 -218 q 639 -201 625 -201 q 667 -211 654 -201 q 681 -236 678 -221 q 703 -211 688 -221 q 735 -201 717 -201 q 769 -218 757 -201 q 779 -262 781 -235 l 779 -443 l 746 -443 l 746 -276 q 740 -237 746 -246 q 724 -229 735 -229 q 706 -237 714 -229 q 692 -260 697 -246 q 686 -287 686 -274 l 686 -443 l 651 -443 l 651 -279 q 646 -240 651 -250 q 625 -229 640 -229 q 610 -236 618 -229 q 596 -257 601 -243 q 592 -286 592 -269 l 592 -443 l 557 -443 l 557 -207 z "},"n":{"ha":1333,"x_min":0,"x_max":1292,"o":"m 0 0 l 0 819 l 42 819 l 42 0 l 0 0 m 167 0 l 167 819 l 208 819 l 208 0 l 167 0 m 250 0 l 250 819 l 292 819 l 292 0 l 250 0 m 417 0 l 417 819 l 458 819 l 458 0 l 417 0 m 583 0 l 583 819 l 625 819 l 625 0 l 583 0 m 667 0 l 667 819 l 708 819 l 708 0 l 667 0 m 750 0 l 750 819 l 792 819 l 792 0 l 750 0 m 833 0 l 833 819 l 958 819 l 958 0 l 833 0 m 1000 0 l 1000 819 l 1042 819 l 1042 0 l 1000 0 m 1167 0 l 1167 819 l 1292 819 l 1292 0 l 1167 0 m 575 -207 l 611 -207 l 611 -249 q 646 -214 625 -228 q 690 -201 667 -201 q 742 -225 722 -201 q 760 -300 760 -250 l 760 -443 l 724 -443 l 724 -301 q 713 -250 724 -265 q 681 -233 700 -233 q 649 -243 664 -233 q 621 -269 632 -253 q 611 -307 611 -286 l 611 -443 l 575 -443 l 575 -207 z "},"o":{"ha":1333,"x_min":0,"x_max":1292,"o":"m 0 0 l 0 819 l 42 819 l 42 0 l 0 0 m 167 0 l 167 819 l 208 819 l 208 0 l 167 0 m 250 0 l 250 819 l 292 819 l 292 0 l 250 0 m 417 0 l 417 819 l 458 819 l 458 0 l 417 0 m 583 0 l 583 819 l 625 819 l 625 0 l 583 0 m 667 0 l 667 819 l 792 819 l 792 0 l 667 0 m 833 0 l 833 819 l 875 819 l 875 0 l 833 0 m 917 0 l 917 819 l 1042 819 l 1042 0 l 917 0 m 1083 0 l 1083 819 l 1125 819 l 1125 0 l 1083 0 m 1250 0 l 1250 819 l 1292 819 l 1292 0 l 1250 0 m 667 -447 q 610 -432 635 -447 q 572 -389 586 -417 q 557 -325 557 -361 q 572 -261 557 -289 q 610 -218 586 -233 q 667 -201 635 -201 q 722 -218 699 -201 q 761 -261 747 -233 q 775 -325 775 -289 q 761 -389 775 -361 q 722 -432 747 -417 q 667 -447 699 -447 m 667 -417 q 703 -404 686 -417 q 728 -372 718 -393 q 736 -324 736 -350 q 717 -258 736 -283 q 667 -233 697 -233 q 617 -258 636 -233 q 597 -324 597 -283 q 606 -372 597 -350 q 631 -404 615 -393 q 667 -417 646 -417 z "},"p":{"ha":1333,"x_min":0,"x_max":1292,"o":"m 0 0 l 0 819 l 42 819 l 42 0 l 0 0 m 167 0 l 167 819 l 208 819 l 208 0 l 167 0 m 250 0 l 250 819 l 292 819 l 292 0 l 250 0 m 417 0 l 417 819 l 458 819 l 458 0 l 417 0 m 583 0 l 583 819 l 625 819 l 625 0 l 583 0 m 667 0 l 667 819 l 708 819 l 708 0 l 667 0 m 750 0 l 750 819 l 875 819 l 875 0 l 750 0 m 917 0 l 917 819 l 1042 819 l 1042 0 l 917 0 m 1083 0 l 1083 819 l 1125 819 l 1125 0 l 1083 0 m 1250 0 l 1250 819 l 1292 819 l 1292 0 l 1250 0 m 568 -207 l 606 -207 l 606 -254 q 633 -215 614 -228 q 678 -201 653 -201 q 728 -215 704 -201 q 763 -257 750 -229 q 776 -324 776 -283 q 763 -392 776 -362 q 726 -435 749 -421 q 676 -449 703 -449 q 638 -439 656 -449 q 607 -412 618 -429 l 607 -529 l 568 -529 l 568 -207 m 671 -417 q 718 -394 699 -417 q 738 -325 738 -374 q 721 -257 738 -281 q 672 -233 704 -233 q 625 -258 643 -233 q 606 -333 606 -283 q 624 -394 607 -374 q 671 -417 642 -417 z "},"q":{"ha":1333,"x_min":0,"x_max":1292,"o":"m 0 0 l 0 819 l 42 819 l 42 0 l 0 0 m 167 0 l 167 819 l 208 819 l 208 0 l 167 0 m 250 0 l 250 819 l 292 819 l 292 0 l 250 0 m 417 0 l 417 819 l 458 819 l 458 0 l 417 0 m 583 0 l 583 819 l 625 819 l 625 0 l 583 0 m 667 0 l 667 819 l 708 819 l 708 0 l 667 0 m 750 0 l 750 819 l 792 819 l 792 0 l 750 0 m 833 0 l 833 819 l 875 819 l 875 0 l 833 0 m 917 0 l 917 819 l 1042 819 l 1042 0 l 917 0 m 1167 0 l 1167 819 l 1292 819 l 1292 0 l 1167 0 m 729 -406 q 699 -437 718 -425 q 657 -449 679 -449 q 607 -432 629 -449 q 572 -389 585 -417 q 560 -324 560 -361 q 574 -258 560 -286 q 611 -215 588 -231 q 663 -201 635 -201 q 704 -211 688 -201 q 731 -242 721 -222 l 731 -207 l 765 -207 l 765 -529 l 729 -529 l 729 -406 m 663 -415 q 710 -392 692 -415 q 728 -318 728 -368 q 667 -232 728 -232 q 617 -254 636 -232 q 597 -322 597 -278 q 615 -390 597 -365 q 663 -415 632 -415 z "},"r":{"ha":1333,"x_min":0,"x_max":1292,"o":"m 0 0 l 0 819 l 42 819 l 42 0 l 0 0 m 167 0 l 167 819 l 208 819 l 208 0 l 167 0 m 250 0 l 250 819 l 292 819 l 292 0 l 250 0 m 417 0 l 417 819 l 458 819 l 458 0 l 417 0 m 583 0 l 583 819 l 625 819 l 625 0 l 583 0 m 667 0 l 667 819 l 792 819 l 792 0 l 667 0 m 833 0 l 833 819 l 875 819 l 875 0 l 833 0 m 917 0 l 917 819 l 958 819 l 958 0 l 917 0 m 1000 0 l 1000 819 l 1125 819 l 1125 0 l 1000 0 m 1250 0 l 1250 819 l 1292 819 l 1292 0 l 1250 0 m 711 -201 q 774 -228 749 -201 l 757 -256 l 756 -261 l 751 -258 q 749 -250 750 -253 q 739 -242 746 -246 q 708 -233 726 -233 q 674 -243 690 -233 q 647 -271 657 -251 q 636 -318 636 -290 l 636 -443 l 599 -443 l 599 -207 l 638 -207 l 636 -250 q 667 -214 646 -228 q 711 -201 688 -201 z "},"s":{"ha":1333,"x_min":0,"x_max":1292,"o":"m 0 0 l 0 819 l 42 819 l 42 0 l 0 0 m 167 0 l 167 819 l 208 819 l 208 0 l 167 0 m 250 0 l 250 819 l 292 819 l 292 0 l 250 0 m 417 0 l 417 819 l 458 819 l 458 0 l 417 0 m 583 0 l 583 819 l 625 819 l 625 0 l 583 0 m 667 0 l 667 819 l 708 819 l 708 0 l 667 0 m 750 0 l 750 819 l 875 819 l 875 0 l 750 0 m 917 0 l 917 819 l 958 819 l 958 0 l 917 0 m 1000 0 l 1000 819 l 1125 819 l 1125 0 l 1000 0 m 1250 0 l 1250 819 l 1292 819 l 1292 0 l 1250 0 m 667 -449 q 567 -411 607 -449 l 588 -376 l 590 -371 l 594 -374 q 594 -378 594 -375 q 597 -385 596 -382 q 603 -393 600 -389 q 631 -411 615 -404 q 668 -417 646 -417 q 713 -407 696 -417 q 728 -379 728 -397 q 715 -354 728 -364 q 668 -335 703 -344 q 579 -261 579 -308 q 603 -218 579 -233 q 667 -201 625 -201 q 721 -211 699 -201 q 761 -239 743 -219 l 739 -264 l 736 -268 l 733 -265 q 731 -257 733 -260 q 724 -249 729 -253 q 697 -235 711 -239 q 668 -229 682 -229 q 631 -237 646 -229 q 617 -258 617 -244 q 632 -282 617 -272 q 683 -304 646 -293 q 746 -333 728 -318 q 765 -375 765 -349 q 740 -428 765 -407 q 667 -449 715 -449 z "},"t":{"ha":1333,"x_min":0,"x_max":1292,"o":"m 0 0 l 0 819 l 42 819 l 42 0 l 0 0 m 167 0 l 167 819 l 208 819 l 208 0 l 167 0 m 250 0 l 250 819 l 292 819 l 292 0 l 250 0 m 417 0 l 417 819 l 458 819 l 458 0 l 417 0 m 583 0 l 583 819 l 625 819 l 625 0 l 583 0 m 667 0 l 667 819 l 708 819 l 708 0 l 667 0 m 750 0 l 750 819 l 792 819 l 792 0 l 750 0 m 833 0 l 833 819 l 958 819 l 958 0 l 833 0 m 1000 0 l 1000 819 l 1125 819 l 1125 0 l 1000 0 m 1250 0 l 1250 819 l 1292 819 l 1292 0 l 1250 0 m 767 -421 q 692 -447 733 -447 q 636 -424 653 -447 q 619 -346 619 -399 q 621 -315 619 -336 l 626 -237 l 574 -237 l 574 -207 l 628 -207 l 632 -144 l 672 -137 l 678 -137 l 678 -140 q 674 -149 675 -144 q 671 -160 671 -153 l 665 -207 l 743 -207 l 743 -237 l 663 -237 l 658 -318 q 657 -344 657 -339 q 667 -401 657 -386 q 697 -415 676 -415 q 726 -410 713 -415 q 756 -392 739 -404 l 767 -421 z "},"u":{"ha":1333,"x_min":0,"x_max":1292,"o":"m 0 0 l 0 819 l 42 819 l 42 0 l 0 0 m 167 0 l 167 819 l 208 819 l 208 0 l 167 0 m 250 0 l 250 819 l 292 819 l 292 0 l 250 0 m 417 0 l 417 819 l 458 819 l 458 0 l 417 0 m 583 0 l 583 819 l 625 819 l 625 0 l 583 0 m 667 0 l 667 819 l 792 819 l 792 0 l 667 0 m 917 0 l 917 819 l 958 819 l 958 0 l 917 0 m 1000 0 l 1000 819 l 1042 819 l 1042 0 l 1000 0 m 1083 0 l 1083 819 l 1125 819 l 1125 0 l 1083 0 m 1167 0 l 1167 819 l 1292 819 l 1292 0 l 1167 0 m 651 -449 q 592 -421 614 -449 q 571 -339 569 -393 l 571 -207 l 607 -207 l 607 -339 q 622 -400 607 -381 q 661 -419 636 -419 q 706 -397 688 -419 q 725 -337 725 -376 l 725 -207 l 761 -207 l 761 -407 q 761 -426 761 -419 q 765 -443 763 -435 l 731 -443 q 726 -426 726 -435 q 725 -407 725 -419 q 694 -437 714 -426 q 651 -449 675 -449 z "},"v":{"ha":1333,"x_min":0,"x_max":1292,"o":"m 0 0 l 0 819 l 42 819 l 42 0 l 0 0 m 167 0 l 167 819 l 208 819 l 208 0 l 167 0 m 250 0 l 250 819 l 292 819 l 292 0 l 250 0 m 417 0 l 417 819 l 458 819 l 458 0 l 417 0 m 583 0 l 583 819 l 625 819 l 625 0 l 583 0 m 667 0 l 667 819 l 708 819 l 708 0 l 667 0 m 833 0 l 833 819 l 958 819 l 958 0 l 833 0 m 1000 0 l 1000 819 l 1042 819 l 1042 0 l 1000 0 m 1083 0 l 1083 819 l 1125 819 l 1125 0 l 1083 0 m 1167 0 l 1167 819 l 1292 819 l 1292 0 l 1167 0 m 772 -207 q 738 -310 764 -249 l 681 -443 l 651 -443 l 558 -207 l 596 -207 l 668 -392 l 707 -304 q 738 -207 731 -251 l 772 -207 z "},"w":{"ha":1333,"x_min":0,"x_max":1292,"o":"m 0 0 l 0 819 l 42 819 l 42 0 l 0 0 m 167 0 l 167 819 l 208 819 l 208 0 l 167 0 m 250 0 l 250 819 l 292 819 l 292 0 l 250 0 m 417 0 l 417 819 l 458 819 l 458 0 l 417 0 m 583 0 l 583 819 l 625 819 l 625 0 l 583 0 m 667 0 l 667 819 l 792 819 l 792 0 l 667 0 m 917 0 l 917 819 l 1042 819 l 1042 0 l 917 0 m 1083 0 l 1083 819 l 1125 819 l 1125 0 l 1083 0 m 1167 0 l 1167 819 l 1208 819 l 1208 0 l 1167 0 m 1250 0 l 1250 819 l 1292 819 l 1292 0 l 1250 0 m 546 -207 l 578 -207 l 617 -397 l 657 -229 l 679 -229 l 729 -396 q 747 -269 744 -300 q 751 -215 751 -239 l 751 -207 l 786 -207 q 747 -443 771 -326 l 711 -443 l 668 -290 l 626 -443 l 593 -443 l 546 -207 z "},"x":{"ha":1333,"x_min":0,"x_max":1292,"o":"m 0 0 l 0 819 l 42 819 l 42 0 l 0 0 m 167 0 l 167 819 l 208 819 l 208 0 l 167 0 m 250 0 l 250 819 l 292 819 l 292 0 l 250 0 m 417 0 l 417 819 l 458 819 l 458 0 l 417 0 m 583 0 l 583 819 l 625 819 l 625 0 l 583 0 m 667 0 l 667 819 l 708 819 l 708 0 l 667 0 m 833 0 l 833 819 l 875 819 l 875 0 l 833 0 m 917 0 l 917 819 l 1042 819 l 1042 0 l 917 0 m 1083 0 l 1083 819 l 1125 819 l 1125 0 l 1083 0 m 1167 0 l 1167 819 l 1292 819 l 1292 0 l 1167 0 m 644 -324 l 564 -207 l 604 -207 l 665 -294 l 725 -207 l 763 -207 l 686 -322 l 774 -443 l 731 -443 l 665 -351 l 604 -443 l 561 -443 l 644 -324 z "},"y":{"ha":1333,"x_min":0,"x_max":1292,"o":"m 0 0 l 0 819 l 42 819 l 42 0 l 0 0 m 167 0 l 167 819 l 208 819 l 208 0 l 167 0 m 250 0 l 250 819 l 292 819 l 292 0 l 250 0 m 417 0 l 417 819 l 458 819 l 458 0 l 417 0 m 583 0 l 583 819 l 625 819 l 625 0 l 583 0 m 667 0 l 667 819 l 792 819 l 792 0 l 667 0 m 917 0 l 917 819 l 958 819 l 958 0 l 917 0 m 1000 0 l 1000 819 l 1125 819 l 1125 0 l 1000 0 m 1167 0 l 1167 819 l 1208 819 l 1208 0 l 1167 0 m 1250 0 l 1250 819 l 1292 819 l 1292 0 l 1250 0 m 767 -207 q 757 -249 763 -228 q 739 -304 750 -269 l 679 -469 q 649 -518 668 -503 q 603 -533 629 -533 q 549 -512 569 -533 l 565 -487 l 568 -483 l 571 -485 q 575 -493 572 -490 q 585 -500 578 -497 q 606 -503 594 -503 q 636 -489 624 -503 q 658 -444 647 -475 l 561 -207 l 600 -207 l 674 -396 l 704 -301 q 721 -247 715 -265 q 729 -207 726 -228 l 767 -207 z "},"z":{"ha":1333,"x_min":0,"x_max":1292,"o":"m 0 0 l 0 819 l 42 819 l 42 0 l 0 0 m 167 0 l 167 819 l 208 819 l 208 0 l 167 0 m 250 0 l 250 819 l 292 819 l 292 0 l 250 0 m 417 0 l 417 819 l 458 819 l 458 0 l 417 0 m 583 0 l 583 819 l 625 819 l 625 0 l 583 0 m 667 0 l 667 819 l 708 819 l 708 0 l 667 0 m 833 0 l 833 819 l 958 819 l 958 0 l 833 0 m 1000 0 l 1000 819 l 1125 819 l 1125 0 l 1000 0 m 1167 0 l 1167 819 l 1208 819 l 1208 0 l 1167 0 m 1250 0 l 1250 819 l 1292 819 l 1292 0 l 1250 0 m 564 -418 l 710 -240 l 574 -240 l 574 -207 l 757 -207 l 757 -232 l 614 -411 l 747 -411 q 760 -410 756 -411 q 767 -406 763 -408 l 769 -406 l 769 -443 l 564 -443 l 564 -418 z "},"{":{"ha":1333,"x_min":0,"x_max":1292,"o":"m 0 0 l 0 819 l 42 819 l 42 0 l 0 0 m 83 0 l 83 819 l 125 819 l 125 0 l 83 0 m 250 0 l 250 819 l 292 819 l 292 0 l 250 0 m 417 0 l 417 819 l 458 819 l 458 0 l 417 0 m 583 0 l 583 819 l 625 819 l 625 0 l 583 0 m 667 0 l 667 819 l 708 819 l 708 0 l 667 0 m 750 0 l 750 819 l 875 819 l 875 0 l 750 0 m 917 0 l 917 819 l 1042 819 l 1042 0 l 917 0 m 1083 0 l 1083 819 l 1125 819 l 1125 0 l 1083 0 m 1250 0 l 1250 819 l 1292 819 l 1292 0 l 1250 0 m 729 -525 q 665 -518 690 -525 q 629 -490 642 -510 q 619 -435 618 -471 l 622 -383 q 610 -337 622 -350 q 575 -325 599 -325 l 565 -325 l 565 -296 l 575 -296 q 611 -283 599 -296 q 622 -242 622 -269 l 622 -204 q 715 -114 622 -114 l 749 -114 l 749 -143 l 706 -143 q 658 -199 658 -143 l 658 -235 q 614 -311 658 -292 q 658 -390 658 -325 l 657 -435 q 671 -482 657 -469 q 721 -496 686 -496 l 747 -496 l 747 -525 l 729 -525 z "},"|":{"ha":1333,"x_min":0,"x_max":1292,"o":"m 0 0 l 0 819 l 42 819 l 42 0 l 0 0 m 83 0 l 83 819 l 125 819 l 125 0 l 83 0 m 250 0 l 250 819 l 292 819 l 292 0 l 250 0 m 417 0 l 417 819 l 458 819 l 458 0 l 417 0 m 583 0 l 583 819 l 625 819 l 625 0 l 583 0 m 667 0 l 667 819 l 708 819 l 708 0 l 667 0 m 750 0 l 750 819 l 792 819 l 792 0 l 750 0 m 833 0 l 833 819 l 875 819 l 875 0 l 833 0 m 917 0 l 917 819 l 1042 819 l 1042 0 l 917 0 m 1167 0 l 1167 819 l 1292 819 l 1292 0 l 1167 0 m 650 -107 l 685 -107 l 685 -521 l 650 -521 l 650 -107 z "},"}":{"ha":1333,"x_min":0,"x_max":1292,"o":"m 0 0 l 0 819 l 42 819 l 42 0 l 0 0 m 83 0 l 83 819 l 125 819 l 125 0 l 83 0 m 250 0 l 250 819 l 292 819 l 292 0 l 250 0 m 417 0 l 417 819 l 458 819 l 458 0 l 417 0 m 583 0 l 583 819 l 625 819 l 625 0 l 583 0 m 667 0 l 667 819 l 792 819 l 792 0 l 667 0 m 833 0 l 833 819 l 875 819 l 875 0 l 833 0 m 917 0 l 917 819 l 958 819 l 958 0 l 917 0 m 1000 0 l 1000 819 l 1125 819 l 1125 0 l 1000 0 m 1250 0 l 1250 819 l 1292 819 l 1292 0 l 1250 0 m 565 -525 l 565 -496 l 592 -496 q 642 -482 628 -496 q 657 -435 657 -469 l 656 -390 q 700 -311 656 -325 q 654 -235 654 -292 l 656 -199 q 608 -143 656 -143 l 565 -143 l 565 -114 l 597 -114 q 692 -204 692 -114 l 690 -242 q 703 -283 690 -269 q 739 -296 715 -296 l 749 -296 l 749 -325 l 739 -325 q 703 -337 715 -325 q 692 -383 692 -350 l 694 -435 q 683 -490 696 -471 q 649 -518 672 -510 q 585 -525 624 -525 l 565 -525 z "},"~":{"ha":1333,"x_min":0,"x_max":1292,"o":"m 0 0 l 0 819 l 42 819 l 42 0 l 0 0 m 83 0 l 83 819 l 125 819 l 125 0 l 83 0 m 250 0 l 250 819 l 292 819 l 292 0 l 250 0 m 417 0 l 417 819 l 458 819 l 458 0 l 417 0 m 583 0 l 583 819 l 625 819 l 625 0 l 583 0 m 667 0 l 667 819 l 708 819 l 708 0 l 667 0 m 750 0 l 750 819 l 875 819 l 875 0 l 750 0 m 917 0 l 917 819 l 958 819 l 958 0 l 917 0 m 1000 0 l 1000 819 l 1125 819 l 1125 0 l 1000 0 m 1250 0 l 1250 819 l 1292 819 l 1292 0 l 1250 0 m 717 -306 q 694 -301 704 -306 q 672 -290 685 -297 q 654 -281 661 -283 q 639 -278 647 -278 q 617 -283 626 -278 q 600 -303 608 -289 l 574 -290 q 599 -261 583 -272 q 638 -250 615 -250 q 660 -253 650 -250 q 681 -264 668 -257 q 699 -274 690 -271 q 715 -278 707 -278 q 733 -272 726 -278 q 751 -253 742 -267 l 775 -267 q 749 -297 763 -289 q 717 -306 736 -306 z "},"":{"ha":1333,"x_min":0,"x_max":1292,"o":"m 0 0 l 0 819 l 42 819 l 42 0 l 0 0 m 83 0 l 83 819 l 125 819 l 125 0 l 83 0 m 250 0 l 250 819 l 292 819 l 292 0 l 250 0 m 417 0 l 417 819 l 458 819 l 458 0 l 417 0 m 583 0 l 583 819 l 625 819 l 625 0 l 583 0 m 667 0 l 667 819 l 708 819 l 708 0 l 667 0 m 750 0 l 750 819 l 792 819 l 792 0 l 750 0 m 833 0 l 833 819 l 958 819 l 958 0 l 833 0 m 1000 0 l 1000 819 l 1125 819 l 1125 0 l 1000 0 m 1250 0 l 1250 819 l 1292 819 l 1292 0 l 1250 0 z "},"":{"ha":667,"x_min":0,"x_max":0,"o":""},"":{"ha":667,"x_min":0,"x_max":625,"o":"m 0 0 l 0 819 l 42 819 l 42 0 l 0 0 m 167 0 l 167 819 l 292 819 l 292 0 l 167 0 m 333 0 l 333 819 l 375 819 l 375 0 l 333 0 m 417 0 l 417 819 l 542 819 l 542 0 l 417 0 m 583 0 l 583 819 l 625 819 l 625 0 l 583 0 z "},"":{"ha":0,"x_min":0,"x_max":0,"o":""},"":{"ha":0,"x_min":0,"x_max":0,"o":""}}}
